<?xml version="1.0" standalone="no"?>
<!DOCTYPE svg PUBLIC "-//W3C//DTD SVG 20010904//EN"
 "http://www.w3.org/TR/2001/REC-SVG-20010904/DTD/svg10.dtd">
<svg version="1.0" xmlns="http://www.w3.org/2000/svg"
 width="960.000000pt" height="960.000000pt" viewBox="0 0 960.000000 960.000000"
 preserveAspectRatio="xMidYMid meet">
<metadata>
Created by potrace 1.11, written by Peter Selinger 2001-2013
</metadata>
<g transform="translate(0.000000,960.000000) scale(0.100000,-0.100000)"
fill="#000000" stroke="none">
<path d="M1 9431 l-2 -169 43 -33 c63 -48 118 -101 113 -110 -3 -4 7 -10 21
-13 24 -6 25 -8 9 -20 -19 -13 -33 -3 -133 92 -25 23 -46 42 -48 42 -2 0 -4
-105 -4 -233 l0 -234 25 -23 c14 -13 25 -28 25 -33 0 -6 -11 0 -25 13 -27 26
-33 17 -10 -14 19 -25 19 -37 0 -30 -13 5 -15 -41 -15 -380 l0 -386 38 -24
c20 -13 43 -30 50 -38 11 -13 7 -14 -26 -8 -21 4 -44 10 -50 14 -10 6 -12
-141 -12 -633 1 -540 3 -639 14 -635 8 3 29 -3 48 -13 l33 -18 -27 -3 c-15 -2
-36 2 -47 8 l-21 11 0 -2301 c0 -2185 1 -2300 17 -2301 10 -1 23 0 28 1 14 3
127 2 200 -1 33 -1 63 -7 67 -13 5 -7 8 -4 8 7 0 15 11 17 80 17 52 0 80 4 80
11 0 8 4 8 12 1 12 -9 148 -8 366 4 66 3 92 1 92 -7 0 -9 3 -9 14 0 12 10 404
24 656 23 54 0 58 1 25 7 -31 5 -36 8 -22 14 10 4 28 7 39 7 14 0 18 5 14 16
-3 8 -2 13 3 9 5 -3 12 1 15 7 3 10 9 8 19 -4 20 -25 30 -22 22 5 l-6 22 20
-24 c12 -13 21 -29 21 -37 0 -17 36 -19 43 -1 4 9 7 9 14 -1 7 -9 47 -11 168
-8 87 3 162 9 166 13 5 4 -56 5 -134 2 -111 -4 -145 -3 -157 8 -12 11 -12 13
6 13 11 0 37 9 59 20 22 11 45 20 52 20 7 0 13 5 13 10 0 6 10 8 24 4 18 -4
28 -1 37 14 7 11 19 17 29 15 10 -3 21 0 24 6 5 8 13 8 26 1 14 -7 19 -5 23
10 6 24 0 30 -34 30 -21 0 -28 6 -31 25 -5 23 -2 25 28 25 18 0 36 4 39 10 3
5 18 8 33 6 15 -2 20 -1 12 1 -8 3 -20 12 -26 21 -6 8 -16 12 -22 8 -7 -4 -12
-1 -12 9 0 9 5 13 10 10 24 -15 7 13 -20 33 -45 34 -39 58 6 27 35 -24 38 -24
51 -8 10 13 16 15 19 6 8 -18 22 -16 46 7 l22 20 -25 0 c-24 1 -59 21 -62 36
-1 5 -10 7 -19 6 -11 -2 -18 3 -18 12 0 8 -9 20 -21 26 -16 9 -18 14 -8 26 16
19 30 18 22 -3 -4 -10 -2 -14 4 -10 6 4 13 2 15 -5 4 -12 29 -20 66 -20 16 0
22 -6 22 -22 0 -26 63 -69 102 -69 17 0 28 -6 28 -14 0 -16 25 -28 40 -18 11
7 -41 65 -58 65 -5 0 -17 9 -27 20 -18 19 -9 29 10 11 6 -4 24 -11 40 -14 17
-4 24 -4 18 -1 -18 8 -16 25 2 18 8 -3 22 2 31 11 16 15 15 17 -5 31 -31 22
-26 32 14 29 30 -3 35 -1 35 18 0 18 -2 19 -10 7 -8 -13 -10 -13 -10 -1 0 8
-12 28 -27 43 -22 23 -24 30 -14 41 11 9 14 9 18 0 7 -20 21 -15 26 10 l4 22
2 -22 c0 -13 6 -23 12 -23 6 0 9 7 5 15 -3 8 -1 15 4 15 6 0 10 -4 10 -10 0
-5 9 -10 20 -10 11 0 20 5 20 10 0 6 -7 10 -15 10 -21 0 -19 13 6 29 19 11 21
11 17 -1 -4 -10 2 -13 28 -10 19 2 34 10 34 16 0 15 112 37 190 38 29 0 62 5
71 11 14 8 21 9 30 0 16 -16 46 -5 54 20 l6 22 9 -22 c5 -13 15 -21 22 -18 7
2 54 9 103 15 50 5 110 14 135 19 37 7 27 9 -56 7 l-101 -2 7 25 c4 15 12 25
18 24 7 -2 8 8 2 29 -6 18 -6 47 -1 69 6 28 6 39 -3 39 -6 1 3 8 19 18 42 23
151 23 187 -1 59 -40 72 -125 32 -213 -18 -39 -22 -44 -41 -44 -5 0 -1 -5 7
-10 13 -8 11 -18 -15 -67 -32 -61 -113 -147 -318 -337 -141 -130 -187 -186
-240 -292 -60 -120 -73 -212 -44 -311 26 -88 50 -122 113 -159 41 -24 140 -39
150 -23 3 5 -14 9 -37 9 -49 0 -129 35 -129 56 0 8 -4 14 -10 14 -5 0 -10 6
-10 14 0 7 -7 19 -15 26 -8 7 -12 17 -9 22 4 6 0 14 -7 19 -22 14 -18 118 6
135 25 18 53 18 57 -1 2 -12 9 -9 32 12 28 25 72 37 82 21 6 -9 -31 -29 -40
-21 -3 3 -6 -4 -6 -16 0 -12 4 -19 10 -16 6 3 10 -1 10 -9 0 -9 7 -16 15 -16
8 0 15 -5 15 -11 0 -5 5 -7 10 -4 6 4 8 15 5 26 -4 10 -2 19 4 19 5 0 11 -10
13 -22 3 -21 4 -21 21 -4 10 10 21 16 24 13 3 -4 14 -2 24 3 19 11 22 46 6 68
-7 8 -5 12 6 12 8 0 17 -6 20 -12 3 -9 11 -5 22 10 13 17 20 20 30 12 10 -8
15 -8 20 0 4 7 -6 16 -24 23 -34 12 -39 22 -17 30 8 3 24 -3 37 -14 24 -21 54
-25 64 -9 3 6 -1 10 -9 10 -9 0 -16 5 -16 10 0 6 11 8 25 4 20 -5 25 -2 31 20
3 14 9 26 13 26 14 -1 40 -28 33 -35 -4 -5 -1 -5 6 0 10 5 11 10 3 18 -19 19
-12 25 24 22 41 -4 55 -11 55 -30 0 -7 7 -16 16 -19 10 -4 13 -13 9 -26 -10
-30 8 -24 41 14 43 50 81 133 75 164 -1 8 5 19 13 25 8 7 27 55 42 107 73 264
89 312 129 398 24 51 58 113 75 138 16 25 30 49 30 53 0 4 26 33 58 63 57 55
130 99 185 112 l27 6 0 -91 0 -91 149 6 150 7 12 -43 c18 -61 28 -70 69 -58
73 21 230 6 230 -21 0 -37 60 59 112 178 110 253 15 457 -199 431 -75 -9 -93
-1 -93 40 0 86 -68 252 -122 297 -33 28 -115 55 -167 55 -45 0 -115 -26 -165
-62 -32 -23 -76 -37 -76 -25 0 2 -7 50 -15 106 -15 98 -47 191 -66 191 -5 0
-9 7 -9 16 0 10 -6 14 -15 10 -8 -3 -18 1 -22 8 -9 15 -74 36 -113 36 -53 0
-104 -23 -153 -68 -55 -52 -162 -193 -245 -322 -225 -352 -354 -514 -512 -641
-157 -127 -344 -218 -476 -233 -27 -2 -68 -8 -90 -11 -25 -4 -50 -3 -62 4 -12
6 -49 14 -84 16 -100 9 -102 9 -115 26 -7 9 -24 20 -39 23 -14 4 -42 17 -62
30 -20 13 -53 28 -72 35 -41 13 -127 89 -165 145 -72 107 -117 246 -117 361 2
159 8 210 27 208 14 -1 16 4 10 25 -9 37 -7 84 4 91 5 3 12 24 16 46 4 22 17
53 29 70 11 16 22 37 23 46 2 16 41 88 53 99 3 3 13 18 22 35 25 44 173 211
255 286 181 168 417 280 745 353 137 31 210 41 433 61 94 8 197 20 230 26 77
13 259 65 293 84 77 40 123 120 124 213 0 85 -28 142 -127 256 -47 55 -74 74
-155 111 -19 9 -55 26 -80 37 -49 23 -277 98 -297 98 -18 0 -83 32 -83 41 0 4
-13 10 -30 14 -16 4 -30 12 -30 19 0 60 236 284 402 380 l47 28 -27 23 -27 23
24 47 c31 61 23 102 -28 148 -69 62 -156 56 -216 -15 -43 -51 -29 -109 40
-171 17 -15 14 -14 -14 2 -32 18 -70 19 -40 0 25 -15 0 -22 -33 -8 -18 8 -37
12 -43 10 -5 -2 -17 -4 -25 -6 -20 -3 -16 -17 7 -26 40 -16 -33 -8 -82 9 -37
13 -49 22 -47 34 3 15 -1 16 -28 7 -17 -6 -44 -9 -60 -5 -16 3 -32 1 -35 -4
-3 -6 -1 -10 6 -10 10 0 10 -3 1 -12 -10 -10 -15 -10 -20 -1 -11 17 -106 37
-110 24 -2 -6 -8 -11 -13 -11 -6 0 -7 5 -4 10 3 6 0 17 -9 25 -10 10 -17 12
-21 4 -5 -7 -13 -5 -25 6 -19 17 -37 5 -24 -17 5 -8 2 -9 -9 -5 -10 3 -17 2
-17 -2 0 -5 -7 -11 -15 -15 -13 -4 -13 -2 -5 14 5 10 10 26 10 34 0 9 13 35
30 57 16 22 36 65 45 94 33 115 10 224 -80 373 -30 50 -55 96 -55 101 0 5 21
14 46 20 164 42 259 149 258 293 0 55 -6 77 -33 130 -18 35 -47 77 -63 95 -18
18 -28 38 -25 46 7 18 6 18 307 -28 l215 -34 85 22 c140 37 218 96 276 209 53
103 43 294 -23 438 -14 30 -28 77 -31 103 -3 28 -11 51 -18 54 -8 3 -12 9 -9
13 3 4 -2 13 -10 20 -8 7 -12 17 -8 23 3 5 1 7 -4 4 -6 -4 -16 0 -23 8 -7 8
-9 15 -4 15 4 0 -5 14 -21 30 -16 17 -35 30 -43 30 -32 0 -2 26 49 43 131 42
190 91 223 184 10 27 20 55 23 63 3 8 7 31 10 50 2 19 5 40 8 47 2 7 0 15 -4
18 -5 3 -7 14 -4 24 3 10 0 22 -6 25 -6 4 -11 17 -11 29 0 12 -6 34 -14 48 -7
14 -16 37 -19 52 -9 32 -125 207 -138 207 -5 0 -9 5 -9 10 0 27 56 2 162 -73
126 -88 318 -199 598 -347 372 -196 528 -288 783 -458 612 -409 1010 -850
1467 -1622 216 -365 393 -741 569 -1206 32 -88 68 -179 79 -204 l19 -45 179 0
c168 0 179 -1 176 -18 -3 -16 1 -18 30 -12 18 4 44 17 58 29 14 12 42 34 63
50 20 15 37 34 37 42 0 9 -14 35 -31 60 -16 24 -44 70 -60 102 -16 31 -38 71
-47 87 -10 17 -24 53 -31 80 -8 28 -22 68 -32 91 -25 53 -24 69 7 93 87 68
249 7 325 -122 27 -46 30 -59 27 -119 -4 -82 -26 -113 -73 -104 -34 7 -55 30
-55 60 0 12 -7 34 -15 50 -19 36 -19 36 9 36 14 0 32 -10 40 -22 9 -12 18 -19
22 -15 12 11 -6 57 -34 87 -24 26 -32 29 -64 24 -35 -6 -38 -9 -38 -41 0 -60
47 -131 172 -261 111 -115 228 -259 251 -309 8 -18 15 -20 43 -16 74 12 143
-42 676 -535 86 -80 185 -165 220 -190 76 -53 174 -102 207 -102 19 0 22 4 17
24 -5 20 -1 26 26 35 41 15 202 30 288 28 l65 -2 2 380 c2 239 -1 375 -7 365
-5 -8 -12 -11 -16 -8 -8 8 -12 68 -6 85 7 20 23 3 17 -17 -3 -10 -1 -21 5 -25
7 -4 10 98 10 325 l0 331 -87 -7 c-49 -3 -97 -10 -109 -14 -11 -4 -74 -15
-140 -24 -258 -34 -400 -62 -663 -127 -107 -27 -196 -47 -198 -45 -9 9 494
145 727 197 74 16 168 41 209 54 40 14 85 25 100 25 15 0 31 4 37 9 5 6 34 11
64 13 l55 3 2 415 c1 242 -2 407 -7 395 -8 -19 -9 -19 -9 3 -1 12 3 22 7 22 7
0 8 60 3 113 -1 4 -6 6 -13 5 -6 -2 -15 8 -19 22 l-7 25 -1 -27 c-1 -26 -21
-52 -21 -27 0 8 -4 8 -15 -1 -9 -7 -18 -11 -21 -8 -6 7 17 58 25 54 11 -7 9
89 -2 96 -7 4 -7 11 0 20 13 16 20 84 10 94 -4 4 0 15 8 24 8 9 16 39 18 66 2
27 7 56 12 64 6 8 10 34 11 57 1 38 0 41 -17 30 -11 -7 -22 -20 -25 -31 -4
-12 -9 -15 -13 -7 -5 7 -17 8 -41 1 -56 -16 -62 -12 -33 20 14 17 32 30 39 30
8 0 21 11 30 25 9 14 23 25 30 25 8 0 14 5 14 11 0 5 -4 7 -10 4 -17 -11 -31
5 -21 23 6 11 4 20 -7 28 -13 9 -17 28 -17 72 0 33 -3 64 -7 68 -14 13 -9 32
9 37 15 4 16 5 2 6 -17 1 -29 29 -29 69 0 12 -4 22 -10 22 -5 0 -10 7 -10 15
0 8 5 15 11 15 9 0 9 4 0 13 -8 11 -6 18 9 32 26 24 25 38 -1 30 -22 -7 -22
-7 1 25 19 27 21 36 12 51 -11 16 -9 19 9 19 16 0 20 5 16 20 -3 11 -2 18 3
15 4 -3 10 4 13 15 4 14 -5 31 -27 54 -34 37 -46 86 -21 86 8 0 15 4 15 8 0 5
-10 8 -21 8 -29 -1 -35 34 -7 42 14 3 18 11 14 25 -4 18 -3 19 10 5 9 -9 26
-13 45 -10 24 4 29 9 27 26 -2 12 -12 22 -23 24 -11 2 -24 8 -30 14 -7 6 -5 9
5 7 8 -1 28 1 43 6 l29 8 -28 23 c-15 13 -33 24 -41 24 -7 0 -13 5 -13 10 0 6
14 10 31 10 19 0 29 4 27 12 -6 17 -36 34 -45 25 -4 -5 -1 -12 7 -17 23 -14
-30 -8 -60 7 -15 8 -26 9 -28 3 -2 -6 -13 -10 -24 -10 -13 0 -18 6 -16 18 2
11 12 16 28 15 32 -2 90 16 90 28 0 5 -13 9 -30 9 -20 0 -30 -5 -30 -15 0 -8
-4 -15 -10 -15 -5 0 -10 7 -10 15 0 8 -9 15 -20 15 -11 0 -20 -4 -20 -10 0 -5
-4 -10 -10 -10 -5 0 -10 9 -10 19 0 10 -7 22 -16 25 -8 3 -12 10 -9 16 3 5 1
10 -4 10 -6 0 -11 4 -11 9 0 11 39 26 58 22 14 -2 42 17 42 29 0 4 -19 8 -42
8 -31 1 -39 -2 -28 -9 13 -9 13 -10 0 -6 -8 2 -15 10 -15 18 0 8 -7 20 -15 27
-13 11 -10 13 18 9 35 -4 42 6 15 22 -17 10 -17 10 0 11 9 0 17 5 17 12 0 6 7
3 15 -8 15 -19 16 -18 36 9 11 15 27 27 35 27 8 0 14 4 14 9 0 15 -43 42 -50
31 -6 -9 -35 -8 -45 2 -12 12 49 48 81 48 23 0 34 5 34 14 0 25 -12 46 -26 46
-7 0 -11 6 -8 14 3 8 -4 16 -18 21 l-23 8 23 4 c12 2 20 9 17 14 -4 5 6 9 22
9 24 1 26 2 13 13 -9 7 -14 21 -12 31 2 10 -3 23 -12 28 -9 5 -16 19 -16 31 0
12 -11 41 -25 65 -20 35 -22 44 -10 47 8 3 22 7 30 10 9 3 12 11 8 21 -5 14
-3 16 11 11 31 -12 66 3 66 28 0 13 4 26 9 30 6 3 9 13 9 23 0 9 3 25 7 35 5
12 3 17 -9 17 -9 0 -16 -4 -16 -9 0 -5 -7 -12 -16 -15 -12 -4 -15 -2 -11 9 4
8 0 26 -7 39 -10 19 -16 22 -24 14 -22 -22 -13 11 9 35 18 20 19 20 13 2 -7
-17 -6 -18 7 -5 13 12 13 16 2 29 -7 9 -13 19 -13 24 1 13 -31 68 -51 88 -18
18 -19 21 -3 36 14 14 14 18 2 27 -8 6 -15 14 -14 17 2 11 -29 36 -41 32 -6
-2 -13 4 -15 13 -3 17 -4 17 -20 0 -10 -10 -18 -13 -18 -7 0 5 -10 12 -22 14
-20 4 -19 4 5 6 15 0 27 5 27 10 0 12 73 9 82 -3 11 -15 36 13 31 34 -4 13 4
23 28 36 30 15 32 18 14 24 -11 4 -20 13 -20 20 0 7 -6 15 -14 18 -9 3 -11 0
-6 -8 6 -10 4 -11 -11 -6 -24 11 -32 11 -71 2 -40 -9 -46 13 -10 33 12 7 23
21 23 32 0 19 -41 19 -3797 19 l-3798 0 -3 -28 c-4 -38 -42 -38 -46 0 l-3 28
-878 0 -879 0 -1 -169z m1592 137 c55 -23 111 -57 104 -64 -3 -4 -185 73 -196
82 -14 13 49 0 92 -18z m782 -8 c16 -16 24 -30 19 -30 -6 0 -20 14 -32 30 -13
17 -21 30 -19 30 2 0 16 -13 32 -30z m-485 -22 c11 -20 12 -30 3 -39 -10 -10
-21 -6 -71 27 -2 1 2 12 8 24 15 27 40 22 60 -12z m325 12 c3 -5 1 -10 -4 -10
-6 0 -11 5 -11 10 0 6 2 10 4 10 3 0 8 -4 11 -10z m-2160 -40 c-3 -5 2 -10 13
-10 16 0 72 -48 72 -62 0 -3 -8 -5 -17 -4 -24 2 -87 62 -79 75 4 6 9 11 12 11
3 0 2 -4 -1 -10z m2295 -32 c0 -12 -6 -9 -26 13 -19 22 -19 22 4 8 12 -8 22
-17 22 -21z m-59 5 c13 -16 12 -17 -3 -4 -10 7 -18 15 -18 17 0 8 8 3 21 -13z
m-1466 -13 c3 -5 2 -10 -4 -10 -5 0 -13 5 -16 10 -3 6 -2 10 4 10 5 0 13 -4
16 -10z m-623 -92 c21 -23 38 -45 38 -50 0 -4 6 -8 13 -8 17 -1 50 -48 42 -61
-4 -5 -30 13 -61 43 -33 32 -49 55 -42 59 7 4 4 11 -9 18 -11 5 -22 8 -25 6
-2 -2 -4 5 -4 15 0 27 4 26 48 -22z m394 15 c-8 -8 -36 5 -36 17 0 7 6 7 21 0
11 -7 18 -14 15 -17z m89 17 c3 -5 -1 -10 -9 -10 -8 0 -18 5 -21 10 -3 6 1 10
9 10 8 0 18 -4 21 -10z m8615 -50 c0 -5 -7 -10 -16 -10 -8 0 -12 5 -9 10 3 6
10 10 16 10 5 0 9 -4 9 -10z m-8505 -10 c3 -5 2 -10 -4 -10 -5 0 -13 5 -16 10
-3 6 -2 10 4 10 5 0 13 -4 16 -10z m8575 -24 c0 -11 -19 -15 -25 -6 -3 5 1 10
9 10 9 0 16 -2 16 -4z m-8602 -34 c3 -9 -2 -13 -14 -10 -9 1 -19 9 -22 16 -3
9 2 13 14 10 9 -1 19 -9 22 -16z m99 -8 c-3 -3 -12 -4 -19 -1 -8 3 -5 6 6 6
11 1 17 -2 13 -5z m-715 -34 c16 -16 26 -30 21 -30 -5 0 -22 14 -38 30 -16 17
-25 30 -21 30 4 0 21 -13 38 -30z m1915 -26 l28 -25 -32 15 c-33 16 -52 36
-34 36 5 0 23 -11 38 -26z m-1688 -22 c24 -31 27 -39 13 -39 -23 -1 -62 36
-62 59 0 28 15 22 49 -20z m251 19 c5 -11 10 -22 10 -26 0 -9 -49 28 -50 38 0
15 30 6 40 -12z m-332 -93 c2 -10 8 -15 13 -12 13 8 82 -53 362 -319 102 -98
153 -153 145 -158 -13 -8 -110 69 -103 82 3 4 -3 10 -12 13 -10 4 -38 25 -63
47 -25 23 -88 80 -140 127 -52 48 -144 135 -205 195 -103 102 -107 106 -56 75
30 -18 56 -41 59 -50z m1167 71 c11 -17 2 -18 -19 -3 -17 12 -17 14 -4 14 9 0
20 -5 23 -11z m575 -37 c13 -11 21 -26 18 -37 -3 -19 -5 -18 -31 7 -43 43 -32
67 13 30z m-1620 -34 c0 -6 -6 -5 -15 2 -8 7 -15 14 -15 16 0 2 7 1 15 -2 8
-4 15 -11 15 -16z m1024 3 c3 -4 -1 -17 -9 -27 -16 -23 -40 -7 -29 19 7 18 29
23 38 8z m8036 -88 c0 -7 -10 -13 -22 -12 -22 0 -22 1 -3 8 19 8 19 8 -3 20
-21 11 -29 40 -15 55 8 7 42 -50 43 -71z m-8910 45 c0 -13 -23 -5 -28 10 -2 7
2 10 12 6 9 -3 16 -11 16 -16z m1025 -5 c13 -16 25 -31 25 -35 0 -18 -19 -6
-44 27 -32 41 -16 47 19 8z m-1555 7 c13 -8 13 -10 -2 -10 -9 0 -20 5 -23 10
-8 13 5 13 25 0z m1464 -15 c-4 -8 -8 -15 -10 -15 -2 0 -4 7 -4 15 0 8 4 15
10 15 5 0 7 -7 4 -15z m-1152 -102 c135 -118 141 -125 91 -110 -41 11 -99 54
-175 126 -26 25 -54 49 -63 53 -25 15 -17 28 14 24 20 -2 63 -33 133 -93z
m158 65 c0 -12 -6 -9 -26 13 -19 22 -19 22 4 8 12 -8 22 -17 22 -21z m920 -23
c14 -16 10 -18 -14 -9 -9 3 -16 10 -16 15 0 14 16 11 30 -6z m477 -47 c3 -7
-8 -3 -27 8 -18 10 -36 26 -38 33 -5 16 52 -21 65 -41z m-1321 5 c-8 -8 -36 5
-36 17 0 7 6 7 21 0 11 -7 18 -14 15 -17z m8940 -13 c14 0 14 -3 4 -15 -10
-12 -15 -13 -20 -4 -4 6 -12 9 -16 6 -5 -3 -18 1 -29 9 -18 14 -18 14 3 14 14
0 22 6 23 18 0 13 2 12 9 -5 5 -13 17 -23 26 -23z m-9288 -17 c10 -16 23 -35
27 -43 8 -13 7 -13 -9 -1 -50 41 -85 78 -80 84 10 10 41 -10 62 -40z m62 -25
c0 -16 -20 -7 -30 12 -10 19 -10 20 9 8 12 -7 21 -16 21 -20z m384 -29 c31
-34 56 -66 55 -73 0 -7 -2 -7 -6 2 -2 6 -10 12 -17 12 -17 0 -106 88 -106 105
0 26 16 16 74 -46z m819 -29 c-1 -19 -6 -36 -13 -38 -8 -3 -8 -8 1 -18 16 -20
-10 -19 -39 2 -21 15 -32 42 -12 29 6 -3 10 -2 10 4 0 5 -4 13 -10 16 -5 3
-10 11 -10 16 0 6 5 7 10 4 6 -3 10 1 10 10 0 12 7 15 28 13 24 -3 27 -7 25
-38z m-1401 -17 c38 -38 47 -53 28 -53 -11 0 -90 74 -90 84 0 16 28 2 62 -31z
m2028 12 c16 -17 20 -29 14 -35 -13 -13 -64 24 -64 46 0 22 24 17 50 -11z
m-1965 -35 c3 -5 1 -10 -4 -10 -6 0 -11 5 -11 10 0 6 2 10 4 10 3 0 8 -4 11
-10z m1085 -10 c28 -24 19 -37 -15 -22 -16 7 -23 17 -19 27 8 19 6 19 34 -5z
m50 5 c35 -18 41 -40 8 -29 -28 8 -48 23 -48 35 0 12 6 11 40 -6z m-607 -150
c14 -4 17 -8 9 -12 -22 -9 -42 5 -41 29 1 15 3 18 6 7 2 -10 14 -20 26 -24z
m662 15 c3 -5 -3 -10 -15 -10 -12 0 -18 5 -15 10 3 6 10 10 15 10 5 0 12 -4
15 -10z m192 4 c-3 -3 -12 -4 -19 -1 -8 3 -5 6 6 6 11 1 17 -2 13 -5z m-157
-39 c0 -8 -9 -15 -20 -15 -20 0 -26 11 -13 23 12 13 33 7 33 -8z m240 -5 c0
-5 -4 -10 -9 -10 -6 0 -13 5 -16 10 -3 6 1 10 9 10 9 0 16 -4 16 -10z m-860
-35 c11 -13 10 -14 -4 -9 -9 3 -16 10 -16 15 0 13 6 11 20 -6z m784 9 c9 -3
16 -15 16 -26 0 -17 -4 -19 -27 -13 -35 8 -37 11 -30 30 7 16 16 18 41 9z
m7870 -27 c25 -14 25 -14 -17 -13 -33 1 -41 4 -33 13 14 16 18 16 50 0z
m-8899 -17 c3 -5 -1 -10 -9 -10 -8 0 -18 5 -21 10 -3 6 1 10 9 10 8 0 18 -4
21 -10z m1125 -28 c0 -13 -12 -22 -22 -16 -10 6 -1 24 13 24 5 0 9 -4 9 -8z
m-1080 -124 c0 -12 -28 -9 -36 3 -3 6 0 15 7 20 13 7 28 -5 29 -23z m1650 -18
c13 -8 13 -10 -2 -10 -9 0 -20 5 -23 10 -8 13 5 13 25 0z m-1676 -6 c17 -6 22
-24 8 -24 -5 0 -17 7 -28 15 -19 15 -8 20 20 9z m1666 -24 c0 -5 -4 -10 -10
-10 -5 0 -10 5 -10 10 0 6 5 10 10 10 6 0 10 -4 10 -10z m-1812 -25 c17 -14
35 -25 41 -25 6 0 11 -4 11 -10 0 -5 -9 -10 -19 -10 -11 0 -28 -3 -38 -6 -17
-6 -17 -6 1 8 18 14 17 16 -24 29 -50 16 -65 39 -27 39 14 0 39 -11 55 -25z
m148 -13 c1 -24 -4 -26 -25 -13 -9 6 -10 11 -2 15 6 4 8 12 5 18 -4 6 -1 9 7
6 8 -3 15 -14 15 -26z m14 -58 c0 -2 -7 -4 -15 -4 -8 0 -15 4 -15 10 0 5 7 7
15 4 8 -4 15 -8 15 -10z m-130 -64 c0 -5 -6 -10 -14 -10 -8 0 -18 5 -21 10 -3
6 3 10 14 10 12 0 21 -4 21 -10z m245 -10 c3 -5 1 -10 -4 -10 -6 0 -11 5 -11
10 0 6 2 10 4 10 3 0 8 -4 11 -10z m-135 -34 c0 -11 -19 -15 -25 -6 -3 5 1 10
9 10 9 0 16 -2 16 -4z m8900 -226 c0 -5 -7 -10 -15 -10 -8 0 -15 5 -15 10 0 6
7 10 15 10 8 0 15 -4 15 -10z m80 -168 c0 -11 -37 -32 -44 -25 -15 15 -4 33
19 33 14 0 25 -3 25 -8z m-9290 -27 c10 -13 9 -15 -8 -15 -22 0 -36 13 -25 24
10 10 20 7 33 -9z m66 -57 c3 -21 -7 -23 -24 -6 -17 17 -15 30 5 26 9 -2 17
-11 19 -20z m41 -24 c-3 -3 -12 -4 -19 -1 -8 3 -5 6 6 6 11 1 17 -2 13 -5z
m-277 -23 c0 -17 -12 -41 -21 -41 -10 0 -12 33 -2 43 9 10 23 9 23 -2z m387
-46 c0 -8 -6 -15 -14 -15 -7 0 -13 7 -13 15 0 8 6 15 13 15 8 0 14 -7 14 -15z
m-400 -71 c-3 -3 -12 -4 -19 -1 -8 3 -5 6 6 6 11 1 17 -2 13 -5z m51 -183 c3
-8 -1 -12 -9 -9 -7 2 -15 10 -17 17 -3 8 1 12 9 9 7 -2 15 -10 17 -17z m9402
-172 c0 -5 -4 -9 -10 -9 -5 0 -10 7 -10 16 0 8 5 12 10 9 6 -3 10 -10 10 -16z
m-9387 -5 c3 -4 -1 -13 -9 -22 -13 -13 -17 -13 -24 -2 -5 8 -6 18 -4 22 6 9
28 11 37 2z m9367 -44 c0 -5 -2 -10 -4 -10 -3 0 -8 5 -11 10 -3 6 -1 10 4 10
6 0 11 -4 11 -10z m-9340 -10 c0 -13 -11 -13 -30 0 -12 8 -11 10 8 10 12 0 22
-4 22 -10z m130 -25 c17 -20 -7 -20 -34 0 -19 15 -19 15 1 15 11 0 26 -7 33
-15z m-30 -20 c7 -8 8 -15 2 -15 -5 0 -15 7 -22 15 -7 8 -8 15 -2 15 5 0 15
-7 22 -15z m-130 -36 c0 -14 -29 -17 -40 -4 -18 21 -3 37 20 22 11 -6 20 -15
20 -18z m250 11 c0 -5 -4 -10 -9 -10 -6 0 -13 5 -16 10 -3 6 1 10 9 10 9 0 16
-4 16 -10z m9165 -20 c-3 -5 -11 -10 -16 -10 -6 0 -7 5 -4 10 3 6 11 10 16 10
6 0 7 -4 4 -10z m-9278 -22 c-3 -8 -6 -5 -6 6 -1 11 2 17 5 13 3 -3 4 -12 1
-19z m9231 -213 c8 -6 -23 -65 -35 -65 -8 0 -11 5 -8 10 3 6 1 10 -4 10 -12 0
-14 29 -5 54 5 13 10 13 27 4 12 -6 23 -12 25 -13z m-9405 -162 c4 -3 18 -7
32 -9 13 -1 44 -16 69 -33 25 -17 49 -31 55 -31 5 0 12 -4 15 -9 11 -16 -38
-4 -104 27 -76 35 -114 61 -89 62 9 0 19 -3 22 -7z m9460 -73 c-3 -11 -9 -20
-14 -20 -10 0 -12 24 -2 33 13 13 21 7 16 -13z m-26 -66 c-3 -3 -12 -4 -19 -1
-8 3 -5 6 6 6 11 1 17 -2 13 -5z m-6989 -454 c-7 -10 -14 -17 -17 -15 -4 4 18
35 25 35 2 0 -1 -9 -8 -20z m7002 -350 c-8 -5 -19 -10 -25 -10 -5 0 -3 5 5 10
8 5 20 10 25 10 6 0 3 -5 -5 -10z m-7607 -897 c-7 -2 -19 -2 -25 0 -7 3 -2 5
12 5 14 0 19 -2 13 -5z m-23 -33 c0 -5 -9 -10 -21 -10 -11 0 -17 5 -14 10 3 6
13 10 21 10 8 0 14 -4 14 -10z m-1201 -34 c-12 -10 -60 -16 -54 -6 3 5 18 10
32 10 15 0 24 -2 22 -4z m59 -43 c-29 -5 -37 -17 -15 -27 6 -3 1 -3 -13 0 -14
3 -32 12 -40 20 -12 12 -7 14 40 13 30 -1 43 -4 28 -6z m88 -3 c8 0 14 -5 14
-11 0 -7 -10 -9 -25 -7 -14 3 -28 1 -31 -3 -7 -12 53 -11 75 0 19 10 51 -3 38
-15 -13 -13 -131 -13 -139 0 -12 17 -9 26 7 26 8 0 15 5 15 11 0 6 7 8 16 5 9
-3 22 -6 30 -6z m269 -2 c44 -8 54 -13 39 -19 -10 -4 -36 -5 -56 -2 -23 3 -44
1 -52 -7 -8 -6 -23 -10 -33 -7 -13 3 -12 5 6 6 19 1 21 4 12 15 -9 11 -9 15 1
19 19 8 20 8 83 -5z m170 3 c-15 -15 -85 -25 -85 -13 0 9 16 13 80 20 9 1 10
-1 5 -7z m72 3 c-3 -3 -12 -4 -19 -1 -8 3 -5 6 6 6 11 1 17 -2 13 -5z m-703
-19 c3 -8 -11 -12 -42 -12 -26 0 -60 -4 -76 -8 -20 -5 -27 -5 -22 3 4 7 -11 9
-49 5 -37 -4 -55 -2 -55 5 0 19 236 26 244 7z m333 -10 c-7 -14 -18 -25 -25
-25 -8 0 -10 5 -6 13 24 42 49 52 31 12z m-694 -2 c-7 -2 -19 -2 -25 0 -7 3
-2 5 12 5 14 0 19 -2 13 -5z m270 -40 c-7 -2 -19 -2 -25 0 -7 3 -2 5 12 5 14
0 19 -2 13 -5z m-356 -69 c-3 -3 -12 -4 -19 -1 -8 3 -5 6 6 6 11 1 17 -2 13
-5z m1325 -676 c-9 -9 -15 -9 -24 0 -9 9 -7 12 12 12 19 0 21 -3 12 -12z m104
-7 c-7 -11 -66 -20 -66 -10 0 4 12 10 28 12 15 2 31 5 35 6 5 0 6 -3 3 -8z
m-1039 -137 c-3 -3 -12 -4 -19 -1 -8 3 -5 6 6 6 11 1 17 -2 13 -5z m3083 -245
c0 -91 -111 -150 -198 -105 -17 9 -32 20 -32 25 0 9 198 110 218 111 7 0 12
-13 12 -31z m-1410 -838 c0 -6 -4 -13 -10 -16 -5 -3 -10 1 -10 9 0 9 5 16 10
16 6 0 10 -4 10 -9z m-55 -12 c12 -19 -5 -23 -22 -6 -16 16 -16 17 -1 17 9 0
20 -5 23 -11z m101 -29 c8 0 14 -8 14 -17 0 -11 3 -14 8 -7 4 6 17 10 29 9 27
-2 44 -15 20 -15 -10 0 -14 -5 -11 -15 8 -19 -10 -19 -44 -1 -15 8 -35 17 -44
20 -10 3 -18 13 -18 22 0 11 5 14 16 10 9 -3 22 -6 30 -6z m69 -99 c17 -9 31
-24 31 -34 2 -21 -12 -23 -20 -2 -3 8 -12 12 -21 9 -8 -3 -15 -1 -15 5 0 6
-11 16 -25 21 -32 12 -34 34 -2 24 12 -4 36 -14 52 -23z m-168 -17 c-3 -3 -12
-4 -19 -1 -8 3 -5 6 6 6 11 1 17 -2 13 -5z m-17 -84 c13 -8 13 -11 -2 -27 -20
-20 -37 -10 -19 11 9 11 9 15 -1 19 -7 3 -8 6 -3 6 6 0 17 -4 25 -9z m-76 -80
c14 11 16 10 10 -4 -3 -9 -1 -23 6 -30 9 -12 5 -14 -24 -13 -21 1 -36 7 -36
15 0 6 -4 12 -10 12 -5 0 -10 4 -10 9 0 13 34 19 42 7 4 -6 12 -5 22 4z
m-1228 -45 c-3 -9 -11 -13 -16 -10 -8 5 -7 11 1 21 14 18 24 11 15 -11z m1170
-90 c10 -8 14 -15 8 -15 -5 0 -19 7 -30 15 -10 8 -14 15 -8 15 5 0 19 -7 30
-15z m-536 -76 c0 -5 -13 -9 -30 -9 -16 0 -30 4 -30 8 0 5 14 9 30 10 17 0 30
-4 30 -9z m1915 -112 c11 -8 14 -16 8 -20 -6 -4 -18 2 -28 13 -21 23 -8 27 20
7z m-625 -1 c0 -3 -4 -8 -10 -11 -5 -3 -10 -1 -10 4 0 6 5 11 10 11 6 0 10 -2
10 -4z m465 -6 c-3 -5 -10 -10 -16 -10 -5 0 -9 5 -9 10 0 6 7 10 16 10 8 0 12
-4 9 -10z m-450 -51 c4 -6 13 -8 19 -6 7 3 12 -3 12 -15 -1 -24 31 -33 52 -16
9 8 16 8 23 1 8 -8 5 -13 -11 -18 -20 -6 -21 -7 -3 -21 16 -12 16 -13 1 -14
-9 0 -19 4 -22 9 -3 5 -24 7 -47 4 -33 -5 -43 -2 -55 15 -9 13 -21 18 -34 15
-26 -7 -25 5 2 34 23 24 52 30 63 12z m65 -19 c0 -5 -2 -10 -4 -10 -3 0 -8 5
-11 10 -3 6 -1 10 4 10 6 0 11 -4 11 -10z m-140 -50 c0 -5 -2 -10 -4 -10 -3 0
-8 5 -11 10 -3 6 -1 10 4 10 6 0 11 -4 11 -10z m245 -70 c3 -5 1 -10 -4 -10
-6 0 -11 5 -11 10 0 6 2 10 4 10 3 0 8 -4 11 -10z"/>
<path d="M9565 9490 c-3 -5 -1 -10 4 -10 6 0 11 5 11 10 0 6 -2 10 -4 10 -3 0
-8 -4 -11 -10z"/>
<path d="M9567 8913 c-4 -3 -7 -11 -7 -17 0 -6 5 -5 12 2 6 6 9 14 7 17 -3 3
-9 2 -12 -2z"/>
<path d="M9480 8780 c0 -5 5 -10 10 -10 6 0 10 5 10 10 0 6 -4 10 -10 10 -5 0
-10 -4 -10 -10z"/>
<path d="M9508 8632 c-10 -2 -18 -8 -18 -13 0 -13 27 -11 35 2 9 13 4 16 -17
11z"/>
<path d="M9550 8454 c-8 -3 -20 -16 -27 -30 -10 -22 -10 -25 3 -20 9 3 20 6
26 6 6 0 8 7 4 15 -3 9 0 15 9 15 8 0 15 5 15 10 0 10 -4 11 -30 4z"/>
<path d="M4335 8116 c-122 -52 -18 -306 125 -306 67 0 94 118 47 209 -24 48
-77 95 -117 104 -14 3 -39 0 -55 -7z"/>
<path d="M9567 7908 c-6 -21 -2 -36 7 -27 10 11 16 49 8 49 -5 0 -12 -10 -15
-22z"/>
<path d="M9572 7828 c2 -6 10 -14 16 -16 7 -2 10 2 6 12 -7 18 -28 22 -22 4z"/>
<path d="M4106 7311 c-23 -24 -28 -38 -28 -78 1 -109 76 -203 162 -203 45 0
87 47 96 108 6 39 3 54 -21 100 -53 100 -150 134 -209 73z"/>
<path d="M3160 7146 c0 -8 30 -41 67 -73 88 -75 201 -193 209 -216 4 -13 -1
-24 -15 -33 -12 -9 -28 -29 -36 -45 -21 -40 -5 -99 36 -133 31 -26 37 -28 120
-30 l45 -1 -28 73 c-44 116 -50 126 -141 236 -17 22 -43 51 -57 65 -13 14 -23
28 -21 31 1 3 -5 10 -15 15 -10 6 -24 16 -32 23 -7 6 -18 12 -23 12 -5 0 -9 5
-9 11 0 15 -26 39 -42 39 -7 0 -19 9 -26 20 -14 23 -32 26 -32 6z"/>
<path d="M9570 6709 c0 -5 5 -7 10 -4 6 3 10 8 10 11 0 2 -4 4 -10 4 -5 0 -10
-5 -10 -11z"/>
<path d="M4252 6464 c49 -51 78 -106 78 -149 0 -14 5 -25 11 -25 15 0 4 71
-16 109 -20 38 -66 87 -95 101 -18 9 -12 -1 22 -36z"/>
<path d="M4144 5550 c-12 -5 -29 -19 -37 -31 -15 -21 -14 -23 16 -43 59 -40
89 -96 95 -176 l5 -71 31 3 c57 6 98 97 77 175 -28 102 -119 172 -187 143z"/>
<path d="M7406 4926 c-46 -28 -166 -145 -166 -162 0 -14 32 -88 89 -203 22
-46 41 -91 41 -99 0 -19 70 -9 123 18 25 13 58 20 97 20 32 0 62 5 65 11 4 6
19 9 34 7 43 -4 56 18 54 90 -1 34 3 62 8 62 5 0 9 8 9 19 0 21 -46 71 -66 71
-8 0 -14 5 -14 10 0 6 -7 10 -15 10 -8 0 -27 16 -42 36 -15 20 -35 44 -44 54
-8 9 -18 24 -22 33 -3 9 -22 19 -41 23 -20 3 -36 10 -36 15 0 16 -34 9 -74
-15z"/>
<path d="M8029 4840 c-21 -12 -33 -42 -64 -160 -32 -122 -32 -153 0 -174 13
-9 28 -16 34 -16 5 0 15 42 23 93 10 68 17 92 28 92 8 1 28 9 43 19 15 10 30
16 33 13 3 -3 11 -42 16 -86 9 -65 7 -93 -7 -156 l-17 -76 104 -97 c57 -54
130 -122 163 -152 33 -30 104 -97 157 -149 l97 -95 220 43 c154 31 228 41 248
36 29 -9 373 -16 373 -9 0 14 -67 25 -159 25 -133 1 -189 12 -271 57 -107 58
-172 106 -276 205 -55 52 -119 111 -144 132 -53 44 -212 188 -290 263 -30 29
-80 69 -110 90 -30 20 -57 39 -60 42 -13 13 -87 58 -105 63 -11 4 -27 2 -36
-3z"/>
<path d="M4219 4761 c-16 -16 -29 -34 -29 -40 0 -6 14 -26 31 -44 43 -44 69
-103 69 -159 0 -37 4 -50 21 -58 32 -18 60 -8 91 31 45 55 47 101 8 182 -52
111 -131 147 -191 88z"/>
<path d="M7817 4499 c-32 -18 -45 -63 -52 -184 -4 -66 -12 -123 -17 -126 -6
-4 -6 -20 1 -45 6 -22 11 -75 11 -118 0 -72 3 -84 31 -128 26 -40 46 -58 50
-45 0 1 4 94 9 207 8 209 21 282 50 288 14 2 14 -11 3 -115 -16 -157 -17 -416
-1 -411 17 6 36 81 44 172 3 45 9 86 13 91 3 6 7 24 7 40 2 46 14 138 20 157
7 23 17 23 38 -1 13 -14 15 -24 7 -42 -6 -13 -20 -100 -31 -193 -23 -187 -43
-286 -66 -331 -16 -30 -15 -33 45 -154 l62 -123 42 7 c23 4 150 26 282 50 132
24 295 51 361 61 l121 17 34 -25 c57 -43 110 -65 199 -82 47 -9 104 -24 128
-32 24 -9 46 -13 49 -10 11 11 -30 35 -87 51 -30 9 -73 24 -95 34 -22 10 -61
24 -87 31 -26 7 -53 19 -59 26 -6 8 -15 14 -20 14 -5 0 -37 21 -71 47 -60 45
-104 88 -246 237 -34 36 -69 66 -78 66 -10 0 -14 6 -10 15 3 9 0 15 -10 15 -8
0 -28 14 -43 30 -15 17 -41 41 -58 53 -35 25 -226 193 -323 283 -63 59 -183
154 -218 173 -11 6 -24 6 -35 0z m700 -656 c5 -15 -14 -20 -124 -33 -51 -6
-145 -24 -210 -40 -64 -16 -119 -28 -121 -25 -4 4 9 8 243 71 161 43 205 49
212 27z"/>
<path d="M7476 4138 c-21 -30 -20 -44 5 -79 34 -48 96 -189 123 -279 14 -47
44 -143 67 -215 23 -71 44 -141 47 -155 3 -14 11 -29 19 -33 7 -5 11 -12 8
-18 -4 -5 -2 -9 4 -9 5 0 14 7 19 15 8 15 97 45 132 45 9 0 21 -15 28 -33 15
-41 15 -43 0 -45 -7 -1 -25 -4 -40 -8 -18 -4 -28 -2 -28 5 0 6 -5 11 -11 11
-6 0 -8 -8 -5 -18 5 -15 1 -18 -21 -16 -16 2 -38 6 -50 10 -13 3 -23 2 -23 -2
0 -21 73 -320 111 -454 98 -350 118 -409 161 -477 40 -63 59 -116 47 -134 -8
-12 -10 -12 -19 1 -5 8 -10 27 -10 42 0 19 -15 40 -51 75 -61 58 -78 90 -112
213 -14 52 -54 192 -88 310 -34 118 -70 258 -80 310 -10 52 -35 145 -54 205
-19 61 -55 175 -80 255 -54 177 -126 344 -161 377 -27 24 -27 24 -60 7 -26
-15 -36 -16 -46 -6 -16 16 -43 15 -57 -2 -9 -10 -5 -21 19 -46 16 -18 27 -37
23 -44 -4 -6 1 -5 10 3 11 9 17 10 17 2 0 -6 10 -16 23 -22 20 -9 67 -105 67
-138 0 -18 -24 -13 -50 12 -14 12 -35 23 -49 24 -13 1 -27 6 -30 10 -14 19
-61 42 -75 37 -11 -4 -16 0 -16 10 0 19 -2 19 -35 4 -19 -9 -28 -9 -37 0 -17
17 -25 15 -31 -6 -2 -11 -17 -22 -36 -25 -17 -4 -31 -10 -30 -14 3 -19 -2 -27
-10 -15 -5 8 -17 12 -27 10 -15 -3 -12 -7 15 -21 19 -9 42 -17 52 -17 10 0 22
-7 27 -16 6 -11 17 -15 31 -11 25 6 35 -6 26 -32 -13 -42 -69 -30 -132 29 -40
38 -70 39 -86 3 -9 -21 -18 -27 -34 -25 -13 2 -23 -1 -23 -7 0 -9 13 -17 93
-58 17 -9 40 -25 50 -35 10 -10 31 -21 47 -25 16 -3 31 -11 34 -19 3 -8 20
-14 39 -14 57 0 120 -25 187 -73 136 -98 172 -150 168 -242 l-2 -56 -131 -124
c-72 -68 -153 -140 -179 -159 l-47 -36 16 29 c8 17 15 36 15 44 0 16 -51 67
-67 67 -13 0 -12 -88 1 -109 5 -8 3 -16 -4 -21 -18 -11 -71 20 -95 56 -20 30
-73 79 -79 73 -13 -15 -15 -49 -3 -61 7 -7 12 -18 10 -25 -2 -6 13 -24 33 -40
67 -52 76 -63 72 -94 -3 -16 -1 -29 4 -29 4 0 8 5 8 10 0 6 5 10 11 10 6 0 1
-13 -10 -29 -12 -16 -24 -37 -29 -47 -10 -25 -73 -124 -78 -124 -7 0 25 73 40
90 12 14 13 26 8 87 -2 27 -31 44 -60 36 -17 -4 -19 -9 -11 -30 6 -16 5 -32
-2 -46 -18 -34 -31 -37 -64 -17 -50 30 -127 70 -137 70 -5 0 -26 12 -45 28
-20 15 -37 25 -38 22 -4 -10 -76 83 -72 94 6 18 57 19 96 3 44 -19 111 -29
111 -17 0 5 -4 11 -10 15 -5 3 -8 11 -6 18 1 7 1 9 -1 5 -7 -13 -23 -9 -23 5
0 16 -42 57 -58 57 -6 0 -16 8 -21 19 -6 10 -31 24 -58 30 -26 7 -51 17 -54
23 -12 19 -47 -11 -93 -80 -58 -88 -169 -300 -200 -383 -56 -150 -70 -185 -85
-202 -19 -23 -22 -17 -52 93 -12 47 -31 100 -41 118 -10 18 -18 37 -18 43 0 6
-10 23 -22 37 -16 20 -19 22 -14 7 4 -11 19 -54 34 -96 l26 -77 -27 -78 c-15
-44 -37 -126 -50 -184 -20 -93 -25 -105 -45 -108 -12 -2 -22 -10 -22 -19 0 -9
6 -13 15 -9 21 8 28 -28 21 -110 -7 -76 -7 -434 -1 -529 2 -33 9 -114 15 -180
7 -66 14 -138 16 -160 1 -22 4 -40 4 -40 1 0 3 -9 4 -20 2 -11 6 -42 10 -69 5
-32 4 -46 -3 -42 -6 4 -8 -6 -4 -30 4 -25 2 -39 -8 -45 -20 -13 -29 -11 -29 6
0 8 -4 15 -9 15 -6 0 -8 22 -6 50 3 45 1 50 -16 50 -21 0 -21 -6 -1 -60 5 -13
3 -13 -11 -1 -29 23 -32 3 -4 -22 15 -12 27 -28 27 -35 0 -7 4 -12 10 -12 5 0
9 -11 8 -25 -2 -19 -7 -24 -19 -20 -23 8 -36 -15 -15 -27 9 -5 14 -14 10 -19
-3 -6 -12 -3 -19 8 -13 17 -14 17 -20 1 -4 -10 -11 -18 -17 -18 -5 0 -2 10 6
22 19 26 20 39 5 35 -6 -1 -14 4 -16 11 -4 11 -1 12 15 3 11 -6 23 -11 25 -11
7 0 1 52 -7 72 -10 23 -30 23 -22 1 4 -11 -1 -9 -13 6 l-19 24 -11 -21 c-6
-11 -11 -28 -11 -36 0 -9 -4 -16 -10 -16 -5 0 -10 11 -10 25 0 14 -7 28 -15
31 -8 4 -15 10 -15 15 0 5 7 9 15 9 10 0 15 10 15 33 l-1 32 -15 -30 c-9 -16
-23 -35 -31 -42 -13 -10 -12 -13 10 -18 18 -5 23 -12 20 -26 -6 -22 -19 -25
-26 -6 -3 7 -6 6 -6 -5 -1 -9 -10 -20 -21 -23 -11 -3 -20 -11 -20 -17 0 -5 6
-8 13 -5 6 3 20 8 30 12 10 4 17 3 17 -4 0 -6 -7 -11 -16 -11 -10 0 -14 -7
-12 -22 2 -11 -3 -23 -11 -26 -10 -3 -12 1 -8 17 6 24 -5 28 -23 6 -17 -21
-30 -19 -30 5 0 11 5 20 11 20 5 0 7 5 4 10 -9 15 -25 12 -25 -6 0 -8 -5 -12
-11 -8 -6 3 -8 17 -5 30 6 24 -7 33 -19 13 -4 -5 -18 -15 -33 -20 -19 -7 -22
-13 -14 -21 16 -16 15 -24 -5 -44 -11 -10 -16 -29 -15 -51 2 -22 -1 -32 -8
-28 -5 3 -10 21 -10 40 0 18 -5 35 -10 37 -6 2 -12 14 -13 28 -3 30 -29 90
-39 90 -11 0 -9 -12 7 -40 18 -31 18 -41 3 -37 -7 1 -21 15 -31 31 -18 28 -18
28 -33 8 -9 -13 -21 -19 -32 -16 -13 5 -14 4 -3 -4 7 -5 10 -16 7 -23 -4 -8
-1 -6 7 3 8 10 19 18 24 18 16 0 8 -42 -10 -55 -10 -7 -18 -28 -18 -51 -1 -24
-3 -30 -6 -16 -3 13 -9 19 -15 16 -8 -5 -9 -1 -4 11 4 11 2 21 -5 26 -6 4 -12
25 -12 48 0 22 -3 38 -8 36 -4 -3 -10 1 -12 7 -4 9 -6 9 -7 -2 -1 -8 -3 -23
-5 -33 -2 -9 2 -17 9 -17 8 0 12 -12 11 -32 -2 -18 1 -38 5 -43 9 -11 -16 -52
-26 -42 -3 3 -6 18 -6 34 -1 49 -8 73 -23 73 -14 0 -20 -12 -16 -34 2 -11 -19
-36 -30 -36 -5 0 -3 12 4 27 9 20 9 27 0 30 -7 3 -9 14 -4 31 9 32 3 62 -11
62 -5 0 -8 -6 -5 -14 3 -7 0 -19 -6 -25 -14 -14 -44 -14 -49 1 -5 13 -28 2
-28 -13 0 -6 5 -7 10 -4 6 3 10 1 10 -4 0 -6 -9 -11 -19 -11 -23 0 -36 29 -17
36 17 6 17 44 0 61 -6 6 -16 8 -24 3 -11 -7 -12 -14 -2 -35 13 -29 9 -45 -13
-45 -9 0 -12 -6 -9 -15 4 -10 0 -15 -11 -15 -13 0 -16 7 -13 30 3 16 2 30 -1
30 -12 -1 -37 -26 -44 -42 -7 -21 3 -23 22 -6 11 11 12 9 7 -9 -4 -12 -2 -24
4 -28 13 -8 13 -35 0 -35 -5 0 -10 7 -10 16 0 10 -6 14 -15 10 -8 -3 -15 0
-15 6 0 6 -3 9 -6 6 -3 -4 2 -18 11 -32 9 -14 14 -30 11 -35 -4 -5 -2 -12 4
-16 14 -9 12 -26 -2 -24 -7 1 -21 -1 -30 -5 -19 -9 -53 17 -44 33 8 12 -3 41
-15 41 -5 0 -9 -4 -9 -10 0 -9 -19 -36 -49 -67 -13 -14 -16 -13 -28 3 -9 13
-13 14 -13 4 0 -11 -3 -11 -12 -2 -7 7 -21 12 -32 12 -17 0 -18 2 -6 10 8 5
11 12 8 15 -13 13 -30 -8 -25 -31 4 -21 1 -24 -28 -24 -28 0 -32 3 -32 26 -1
28 -18 52 -30 39 -5 -4 -2 -10 5 -12 15 -6 16 -43 2 -43 -6 0 -20 9 -32 20
-12 11 -24 17 -27 14 -3 -3 1 -9 8 -13 21 -13 4 -29 -31 -30 -18 0 -44 -3 -58
-6 -66 -16 -126 -13 -114 6 3 5 -2 9 -10 9 -9 0 -16 -7 -16 -15 0 -18 -46 -21
-52 -4 -3 8 -11 8 -27 -2 -19 -11 -25 -11 -28 -1 -3 6 -9 12 -14 12 -6 0 -8
-3 -6 -7 3 -5 -10 -8 -29 -8 -22 0 -33 4 -30 11 3 7 -5 11 -18 10 -14 0 -22
-6 -19 -13 7 -18 -89 -6 -103 13 -15 18 -25 18 -18 -1 7 -17 -21 -21 -31 -5
-9 14 -21 12 -40 -7 -10 -10 -19 -12 -23 -6 -4 5 -17 12 -30 16 -19 4 -22 2
-17 -14 4 -13 2 -19 -9 -19 -9 0 -16 5 -16 11 0 5 -4 7 -10 4 -6 -3 -10 -1
-10 4 0 15 -30 14 -30 -1 -1 -9 -5 -8 -13 3 -7 9 -17 14 -23 12 -21 -7 -43 26
-50 74 -6 43 -8 45 -16 23 l-9 -25 -13 23 c-6 12 -22 29 -34 38 -12 8 -22 22
-22 30 0 8 -3 14 -7 14 -7 0 -11 19 -13 73 -1 9 -6 17 -11 17 -15 0 -23 -30
-11 -42 6 -6 7 -21 2 -38 -5 -16 -6 -31 -2 -34 3 -3 -3 -15 -13 -26 -10 -11
-13 -20 -7 -20 6 0 18 10 26 22 13 18 16 19 16 5 0 -9 7 -17 15 -17 14 0 14
-3 0 -30 -19 -36 -19 -40 1 -40 10 0 13 6 10 18 -4 10 1 27 9 38 13 17 14 17
15 2 0 -29 1 -32 12 -46 9 -11 13 -11 19 0 6 9 9 7 9 -7 -1 -30 -27 -60 -42
-48 -7 5 -23 8 -35 7 -15 -1 -23 4 -23 15 -1 14 -2 14 -13 1 -7 -8 -24 -20
-38 -27 -26 -11 -27 -11 -33 35 -4 27 -2 48 4 52 13 8 -15 80 -30 80 -6 0 -4
-14 4 -34 15 -37 10 -83 -11 -105 -11 -11 -12 -16 -2 -21 14 -9 3 -30 -17 -30
-8 0 -14 9 -14 19 0 12 -7 20 -17 20 -64 3 -79 9 -100 41 -13 18 -20 36 -17
41 7 12 63 -21 75 -43 11 -21 38 -24 41 -5 0 6 2 19 3 27 2 19 -25 71 -44 86
-8 6 -12 18 -8 26 7 19 -11 38 -29 31 -17 -6 -18 9 -2 25 9 9 9 12 0 12 -6 0
-18 -12 -25 -27 l-14 -27 -8 25 c-5 13 -7 39 -6 57 1 17 -2 32 -6 32 -13 0
-39 -20 -27 -20 14 0 28 -61 16 -69 -5 -3 -11 -14 -15 -23 -3 -10 -11 -18 -18
-18 -6 0 -9 7 -5 15 3 8 2 15 -3 15 -17 0 -10 -81 8 -99 15 -15 16 -21 6 -34
-7 -10 -20 -17 -29 -17 -9 0 -16 -5 -16 -11 0 -5 4 -7 10 -4 16 10 11 -31 -5
-45 -10 -9 -15 -9 -15 -1 0 6 -9 11 -20 11 -11 0 -20 4 -20 8 0 5 -9 20 -21
33 -18 21 -20 21 -17 5 7 -39 -18 -24 -34 20 -13 36 -13 44 -3 40 9 -3 12 0 8
10 -3 8 -12 13 -19 10 -10 -4 -14 3 -14 24 0 31 -13 39 -27 17 -14 -22 -12
-38 5 -44 18 -7 32 -22 32 -37 0 -4 -7 -5 -15 -2 -10 3 -15 1 -13 -7 4 -21
-12 -86 -24 -93 -6 -4 -8 -3 -5 3 4 6 0 16 -8 23 -9 7 -13 21 -10 31 7 20 -2
24 -20 11 -11 -8 -12 -43 -1 -60 3 -6 2 -13 -4 -17 -5 -3 -10 3 -10 14 0 21
-11 27 -23 14 -4 -3 -2 -12 5 -20 10 -13 4 -32 -7 -21 -16 16 -23 69 -11 81 8
7 17 24 21 37 8 25 7 25 -13 7 -27 -25 -42 -14 -42 29 0 19 -4 34 -10 34 -5 0
-10 9 -10 21 0 13 5 19 13 16 6 -3 20 -8 30 -12 24 -10 22 11 -3 28 -13 9 -18
21 -15 33 5 16 4 16 -5 -1 -6 -11 -24 -29 -41 -40 -32 -22 -39 -55 -11 -55 15
0 18 -6 14 -33 -2 -17 -10 -39 -16 -47 -10 -13 -9 -13 7 -1 15 12 20 12 30 1
9 -10 9 -11 0 -6 -7 4 -13 2 -13 -3 0 -6 5 -11 11 -11 5 0 7 -5 4 -10 -5 -8
-11 -7 -20 0 -16 14 -38 3 -32 -14 7 -19 -18 -47 -37 -40 -17 7 -22 34 -6 34
6 0 10 22 10 49 0 28 5 53 10 56 11 7 8 37 -9 75 -10 22 -11 20 -8 -20 2 -33
-2 -50 -15 -64 -19 -21 -25 -41 -9 -31 18 10 21 -13 6 -41 -8 -16 -15 -34 -15
-41 0 -6 -9 -9 -21 -6 -19 5 -21 3 -17 -21 4 -21 3 -24 -8 -15 -9 7 -12 21 -8
38 9 35 23 49 33 33 16 -27 21 16 5 47 -20 39 -32 40 -28 1 3 -21 -1 -30 -11
-30 -8 0 -15 5 -15 10 0 6 -5 10 -10 10 -6 0 -8 -11 -4 -25 6 -26 -1 -31 -25
-16 -7 5 -11 13 -7 19 3 6 2 13 -3 16 -5 4 -11 -3 -13 -14 -2 -12 -7 -20 -13
-20 -5 1 -9 7 -7 14 1 7 -5 13 -13 13 -18 0 -18 1 -5 -32 7 -19 15 -25 26 -21
12 4 15 2 10 -9 -3 -8 -1 -15 3 -15 5 0 11 7 15 15 3 8 1 15 -4 15 -6 0 -10 4
-10 10 0 5 7 7 16 3 11 -4 14 -13 9 -32 -9 -36 -21 -47 -39 -32 -8 7 -19 10
-24 7 -5 -3 -18 1 -28 9 -10 8 -14 15 -8 15 16 0 24 24 13 41 -6 11 -11 6 -20
-18 -6 -18 -15 -33 -20 -33 -11 0 -12 13 0 26 9 10 32 74 26 74 -13 0 -35 -35
-35 -56 0 -14 -7 -27 -16 -31 -8 -3 -13 -12 -10 -19 8 -21 -21 -17 -43 7 -13
14 -21 17 -26 9 -4 -6 1 -18 11 -25 18 -13 18 -14 2 -15 -10 0 -18 5 -18 10 0
6 -11 8 -25 4 -25 -6 -36 10 -12 19 7 3 6 6 -5 6 -9 1 -20 -3 -23 -9 -3 -5
-12 -10 -19 -10 -17 0 -29 42 -14 51 7 4 8 14 3 25 -8 18 -9 18 -12 -1 -2 -11
-17 -28 -34 -37 -23 -13 -29 -23 -24 -37 5 -16 2 -18 -15 -14 -11 3 -20 9 -20
14 0 5 -10 8 -22 6 -15 -1 -23 3 -23 13 0 8 6 14 13 13 6 -2 12 6 12 17 0 10
8 24 18 30 16 11 16 11 -2 6 -16 -6 -17 -4 -6 9 10 12 10 15 0 15 -17 0 -39
-30 -40 -52 0 -10 -4 -18 -10 -18 -5 0 -10 -7 -10 -15 0 -8 -4 -15 -10 -15 -5
0 -10 -8 -10 -17 -1 -16 -2 -16 -15 1 -15 20 -15 20 -30 0 -12 -16 -14 -17
-15 -2 0 9 5 18 12 20 17 6 20 75 4 81 -8 3 -13 -1 -12 -11 1 -12 -6 -17 -23
-16 -20 1 -22 -2 -17 -26 4 -23 2 -27 -13 -23 -12 3 -20 -2 -24 -16 -3 -12
-10 -21 -16 -21 -8 0 -7 6 1 20 10 16 10 22 0 32 -11 11 -16 10 -25 -2 -14
-18 -67 -20 -67 -3 0 6 -5 15 -12 19 -6 4 -8 3 -5 -2 11 -19 -9 -35 -35 -29
-24 6 -25 9 -17 42 4 20 18 45 30 57 14 14 20 16 17 6 -3 -8 2 -22 10 -30 14
-13 15 -12 9 2 -6 18 13 68 26 68 4 0 15 -16 23 -35 8 -19 16 -35 18 -35 5 0
-2 104 -9 123 -9 23 -25 22 -25 -2 0 -11 -5 -23 -11 -26 -5 -4 -14 -18 -19
-31 -6 -15 -15 -22 -24 -18 -8 3 -19 -3 -25 -14 -7 -14 -17 -18 -31 -15 -14 4
-20 0 -20 -11 0 -9 -6 -13 -14 -10 -7 3 -20 -2 -29 -10 -14 -14 -16 -14 -21 2
-2 9 -2 0 1 -20 4 -32 2 -36 -14 -33 -10 2 -21 4 -25 4 -5 1 -8 8 -8 16 0 8
-7 15 -15 15 -8 0 -15 5 -15 11 0 6 6 9 14 6 17 -7 51 39 36 48 -6 3 -10 0
-10 -8 0 -19 -31 -31 -40 -17 -4 7 -12 -2 -20 -20 -18 -43 -35 -51 -27 -12 4
19 2 32 -3 32 -6 0 -10 7 -10 16 0 21 -23 13 -26 -9 -1 -10 4 -17 14 -17 12 0
13 -3 4 -12 -8 -8 -15 -8 -26 1 -13 11 -13 17 -4 35 18 32 18 78 1 71 -8 -3
-16 -5 -18 -5 -2 0 -1 -8 2 -19 3 -10 -1 -22 -8 -26 -8 -5 -10 -4 -5 3 4 7 4
12 1 12 -3 0 -13 -17 -22 -37 l-16 -38 -11 41 c-11 42 -41 81 -50 66 -3 -4 -1
-25 4 -46 7 -31 6 -37 -7 -32 -8 3 -21 6 -29 6 -11 0 -13 6 -9 23 5 15 4 19
-3 12 -6 -5 -14 -23 -18 -39 -6 -24 -4 -28 9 -23 11 4 14 2 10 -9 -3 -7 -8
-14 -12 -14 -15 0 -29 23 -23 39 5 14 4 14 -11 2 -19 -15 -24 -57 -5 -45 6 4
17 -1 25 -12 12 -16 15 -17 23 -4 8 12 10 11 10 -7 0 -12 3 -28 6 -37 4 -11 1
-16 -11 -16 -11 0 -15 5 -12 14 6 15 -16 39 -39 42 -9 2 -12 -6 -7 -27 3 -18
1 -29 -6 -29 -13 0 -25 44 -17 65 3 8 2 15 -3 15 -5 0 -11 12 -14 26 -6 31 13
82 28 77 7 -2 9 12 7 37 -4 36 -22 48 -22 14 0 -8 -4 -14 -10 -14 -5 0 -10 -7
-10 -15 0 -20 -7 -19 -32 5 -16 15 -25 17 -35 9 -10 -9 -13 -7 -13 11 0 20 -2
21 -17 9 -15 -13 -15 -12 -5 8 7 12 9 28 6 36 -7 20 16 33 27 16 4 -7 11 -11
14 -7 7 7 -34 68 -46 68 -13 0 -20 -18 -10 -24 6 -4 6 -20 -1 -42 -5 -20 -7
-38 -4 -41 2 -3 1 -16 -5 -29 -6 -18 -5 -31 6 -48 15 -22 14 -24 -5 -29 -20
-5 -25 6 -20 43 2 17 -26 -11 -46 -46 -7 -10 -18 -18 -27 -18 -9 1 -13 -5 -10
-17 5 -16 7 -17 28 -3 20 13 23 13 29 -2 4 -12 2 -15 -9 -11 -19 8 -22 1 -26
-48 -2 -30 0 -39 11 -37 11 3 11 0 0 -12 -26 -33 -65 -3 -54 41 5 22 4 26 -6
16 -7 -6 -18 -9 -25 -6 -8 2 -19 -5 -25 -17 -9 -17 -14 -19 -26 -9 -8 6 -14
20 -14 30 0 10 -5 21 -10 24 -6 4 -8 11 -5 16 4 5 3 15 -2 22 -4 6 -9 21 -10
31 -5 27 -11 32 -19 12 -3 -9 1 -31 10 -50 20 -43 20 -80 1 -96 -12 -10 -15
-9 -15 8 0 22 -37 37 -56 21 -9 -7 -16 -1 -25 21 -14 29 -29 40 -29 20 0 -5
-7 -10 -15 -10 -9 0 -12 6 -9 15 7 16 -11 21 -21 6 -7 -13 39 -58 53 -53 7 2
12 -1 12 -6 0 -6 3 -18 7 -28 5 -13 3 -16 -10 -11 -9 3 -19 2 -22 -3 -10 -17
-25 -11 -19 8 5 15 4 15 -8 1 -17 -21 -58 -32 -51 -13 7 18 -12 50 -21 35 -4
-6 -2 -11 5 -11 8 0 9 -3 0 -13 -11 -14 -71 -21 -71 -9 0 4 -14 8 -31 8 -22 1
-29 -2 -25 -12 3 -9 -2 -14 -14 -14 -13 0 -21 10 -26 33 -4 17 -9 26 -11 20
-3 -7 -11 -13 -19 -13 -11 0 -12 4 -4 19 18 35 11 41 -17 15 l-28 -25 25 -20
c28 -21 14 -26 -15 -5 -15 10 -23 11 -37 2 -15 -9 -21 -8 -29 4 -8 12 -9 11
-7 -5 2 -15 -3 -21 -24 -23 -17 -2 -28 1 -28 9 0 9 -3 9 -14 -1 -12 -9 -17 -7
-28 9 -7 12 -21 21 -30 21 -10 0 -18 7 -18 16 0 10 -6 14 -14 11 -10 -4 -12 0
-9 14 3 10 0 19 -6 19 -6 0 -11 5 -11 11 0 5 4 7 10 4 5 -3 7 0 4 8 -7 18 -48
31 -52 17 -2 -6 -13 1 -24 16 -15 19 -24 22 -32 14 -8 -8 -7 -13 4 -20 12 -8
12 -10 1 -10 -8 0 -11 -6 -7 -16 8 -21 -24 -60 -34 -43 -4 6 -10 -9 -14 -34
-6 -41 -25 -65 -40 -50 -10 10 -7 51 4 58 15 9 12 35 -4 35 -9 0 -14 -13 -14
-41 -1 -22 -5 -46 -11 -53 -7 -8 -10 -108 -10 -278 0 -257 1 -266 20 -261 26
7 24 -14 -2 -22 -16 -5 -19 -14 -17 -38 l3 -32 911 -3 c906 -2 912 -2 917 18
3 11 1 23 -4 26 -5 3 -9 11 -9 17 0 7 4 6 10 -3 8 -12 10 -10 10 8 0 29 15 21
36 -20 15 -29 11 -55 -5 -29 -7 10 -9 9 -14 -3 -6 -14 352 -16 3868 -16 l3875
0 0 1590 c0 990 -4 1590 -9 1590 -6 0 -17 -10 -25 -21 -9 -13 -21 -19 -30 -16
-19 7 -21 -4 -5 -20 6 -6 8 -16 5 -22 -9 -15 -38 -1 -32 15 3 8 -7 21 -24 31
-17 9 -30 24 -31 33 0 10 -2 11 -6 3 -2 -7 -12 -13 -20 -13 -9 0 -13 6 -10 14
7 18 -12 26 -35 14 -14 -7 -18 -5 -18 9 -1 19 -22 53 -34 53 -3 0 -6 -9 -6
-20 0 -29 -31 -22 -42 10 -4 10 -8 6 -13 -12 -4 -16 -13 -29 -21 -29 -8 -1
-20 -2 -26 -3 -7 -1 -16 -5 -20 -11 -4 -6 -8 -2 -8 8 0 9 -7 17 -15 17 -8 0
-15 -4 -15 -10 0 -5 -9 -10 -20 -10 -12 0 -20 7 -20 18 0 12 -8 8 -29 -18 -16
-19 -33 -32 -37 -27 -4 4 -2 7 6 7 9 0 10 3 1 13 -8 10 -7 17 1 25 9 9 8 12
-5 12 -10 0 -17 -8 -17 -20 0 -14 -7 -20 -22 -20 -21 0 -21 0 -2 15 18 13 17
14 -18 15 -20 0 -39 -6 -42 -12 -3 -7 -3 3 0 22 4 19 7 35 8 35 14 0 62 35 64
47 5 25 -18 28 -218 28 -280 0 -364 -3 -372 -15 -5 -6 -8 -5 -8 3 0 11 -17 12
-80 8 -44 -4 -92 -11 -107 -17 -15 -5 -39 -9 -53 -7 -14 1 -31 -1 -38 -5 -6
-5 -16 -6 -21 -2 -17 10 6 -50 61 -161 77 -155 200 -340 300 -452 45 -50 64
-102 38 -102 -5 0 -10 7 -10 15 0 20 -61 82 -121 123 -85 58 -161 179 -360
572 -73 146 -161 315 -196 377 -34 62 -78 142 -98 179 -78 145 -206 304 -244
304 -5 0 -17 -10 -25 -22z m156 -232 c26 -39 52 -84 58 -100 6 -15 24 -47 40
-70 16 -22 36 -60 46 -83 9 -24 20 -43 25 -43 4 0 13 -9 19 -21 10 -17 5 -30
-30 -85 -44 -67 -56 -78 -47 -44 3 11 1 18 -4 14 -17 -10 -32 48 -20 80 8 24
8 33 -4 46 -8 9 -15 21 -15 27 0 6 -7 16 -15 23 -8 7 -15 23 -15 36 0 12 -4
26 -10 29 -5 3 -10 15 -10 26 0 10 -4 19 -10 19 -5 0 -10 7 -10 15 0 15 -16
55 -56 141 -52 110 -17 104 58 -10z m-324 -185 c21 -11 55 -38 75 -60 20 -23
41 -41 47 -41 5 0 10 -6 10 -13 0 -7 9 -18 20 -25 25 -15 17 -36 -8 -23 -9 5
-33 24 -52 43 -48 46 -78 65 -121 72 -20 3 -46 17 -59 31 -13 14 -32 25 -42
25 -11 0 -16 5 -13 10 4 6 15 8 25 5 10 -3 21 -1 25 4 6 11 30 4 93 -28z m197
-461 c-10 -11 -21 -18 -23 -15 -3 3 3 12 14 20 27 20 30 18 9 -5z m1440 -10
c-3 -5 -10 -10 -16 -10 -5 0 -9 5 -9 10 0 6 7 10 16 10 8 0 12 -4 9 -10z
m-2419 -301 c6 -10 -17 -12 -40 -3 -9 3 -14 10 -11 14 6 10 43 1 51 -11z m163
-174 c49 -29 99 -73 106 -95 3 -10 15 -22 26 -25 19 -6 20 -8 4 -26 -10 -10
-20 -18 -24 -17 -3 0 -17 0 -31 -1 -24 -2 -24 -2 -5 -13 22 -12 35 -28 35 -42
0 -7 -98 -2 -105 6 -1 2 -6 13 -9 26 -6 18 -3 22 12 22 20 0 36 25 26 41 -3 5
-11 9 -18 9 -7 0 -21 9 -31 20 -10 11 -25 20 -34 20 -9 0 -36 19 -61 43 l-45
42 35 6 c55 9 82 5 119 -16z m-839 -1825 c0 -5 -4 -10 -10 -10 -5 0 -10 5 -10
10 0 6 5 10 10 10 6 0 10 -4 10 -10z m174 -56 c4 -19 10 -42 12 -49 4 -10 0
-12 -15 -8 -11 3 -17 11 -15 17 3 7 -2 19 -11 26 -13 10 -15 9 -15 -6 0 -15
-2 -16 -9 -5 -13 20 -2 43 16 36 10 -3 13 -1 10 9 -3 8 -3 17 0 20 11 10 21
-4 27 -40z m-2672 9 c11 -9 18 -11 18 -5 0 7 5 12 11 12 7 0 9 -10 5 -26 -6
-21 -4 -25 8 -21 9 4 17 -1 21 -14 4 -10 11 -19 16 -19 5 0 9 -4 9 -9 0 -12
-41 -2 -61 15 -13 12 -17 11 -29 -11 -7 -14 -17 -25 -21 -25 -10 0 -18 50 -8
56 5 3 9 -2 9 -12 0 -13 4 -11 19 7 22 27 19 39 -10 39 -13 0 -18 -4 -13 -12
5 -10 4 -10 -5 -2 -11 10 -6 44 7 44 3 0 14 -7 24 -17z m2458 -14 c0 -5 -4 -9
-10 -9 -5 0 -10 7 -10 16 0 8 5 12 10 9 6 -3 10 -10 10 -16z m36 -31 c1 -18 0
-25 -3 -15 -4 14 -8 16 -19 6 -8 -6 -18 -9 -22 -5 -4 4 0 13 8 19 9 7 14 21
12 32 -3 16 -1 17 9 8 7 -7 13 -27 15 -45z m-4616 1 c0 -5 -4 -9 -10 -9 -5 0
-10 7 -10 16 0 8 5 12 10 9 6 -3 10 -10 10 -16z m4554 -17 c-6 -20 -24 -32
-24 -14 1 23 14 52 21 45 5 -5 6 -18 3 -31z m-654 16 c0 -21 -17 -41 -28 -34
-14 8 -3 46 14 46 8 0 14 -6 14 -12z m375 2 c-3 -5 -11 -10 -16 -10 -6 0 -7 5
-4 10 3 6 11 10 16 10 6 0 7 -4 4 -10z m-295 -22 c0 -5 -4 -7 -9 -3 -5 3 -12
1 -16 -5 -3 -5 -10 -10 -16 -10 -14 0 -11 28 4 33 16 5 37 -3 37 -15z m-3970
-56 c0 -36 -3 -43 -12 -34 -7 7 -22 12 -34 12 -13 0 -24 8 -27 21 -5 19 -4 19
18 5 21 -14 24 -14 29 0 3 9 6 25 6 35 0 11 5 17 10 14 6 -3 10 -27 10 -53z
m4233 38 c-6 -24 -19 -34 -27 -21 -9 14 4 41 19 41 8 0 11 -8 8 -20z m-4197
-38 c1 -27 -3 -48 -13 -58 -21 -21 -23 -15 -13 31 5 22 7 48 4 59 -4 12 -2 17
7 14 7 -2 14 -22 15 -46z m4414 32 c0 -8 -4 -12 -10 -9 -5 3 -10 10 -10 16 0
5 5 9 10 9 6 0 10 -7 10 -16z m139 -26 c1 -5 -9 -8 -21 -7 -13 0 -17 3 -10 6
6 2 10 9 6 14 -3 5 -2 14 2 21 5 8 10 6 15 -8 4 -10 8 -22 8 -26z m-407 10
c-7 -7 -12 -8 -12 -2 0 14 12 26 19 19 2 -3 -1 -11 -7 -17z m-2312 -14 c0 -8
-5 -12 -10 -9 -6 4 -8 11 -5 16 9 14 15 11 15 -7z m2002 -14 c4 -24 2 -27 -9
-19 -10 9 -13 7 -13 -5 0 -25 -17 -11 -22 18 -5 23 1 29 33 35 4 0 9 -12 11
-29z m43 2 c-8 -8 -25 10 -19 20 4 6 9 5 15 -3 4 -7 6 -15 4 -17z m361 8 c0
-22 -11 -26 -22 -9 -5 9 5 22 21 29 1 0 1 -9 1 -20z m520 6 c18 -18 17 -26 -3
-51 -15 -19 -15 -19 -9 7 3 15 2 30 -4 33 -11 7 -14 25 -4 25 3 0 12 -6 20
-14z m-346 -10 c0 -8 -6 -16 -14 -19 -10 -4 -12 0 -9 14 6 22 23 26 23 5z
m174 -2 c22 -8 20 -19 -4 -21 -11 -1 -20 4 -20 13 0 16 2 16 24 8z m121 -2
c12 -9 18 -32 8 -32 -15 1 -43 27 -36 33 8 9 16 9 28 -1z m-4415 -12 c0 -5 7
-10 15 -10 8 0 15 -7 15 -15 0 -8 -5 -15 -11 -15 -7 0 -18 -8 -25 -17 -12 -17
-12 -17 -11 2 1 11 6 23 11 27 6 4 4 13 -3 22 -9 11 -10 16 -2 16 6 0 11 -4
11 -10z m3865 0 c3 -5 1 -10 -4 -10 -6 0 -11 5 -11 10 0 6 2 10 4 10 3 0 8 -4
11 -10z m340 1 c3 -5 1 -12 -5 -16 -5 -3 -10 1 -10 9 0 18 6 21 15 7z m-5561
-50 c-7 -9 -24 13 -24 32 0 21 1 21 13 -3 8 -14 12 -27 11 -29z m1296 39 c0
-5 -2 -10 -4 -10 -3 0 -8 5 -11 10 -3 6 -1 10 4 10 6 0 11 -4 11 -10z m-287
-59 c-2 -3 -12 -5 -23 -6 -15 -1 -19 3 -15 16 3 9 1 20 -5 24 -5 3 -10 11 -10
16 0 5 13 -3 28 -18 16 -15 27 -30 25 -32z m93 43 c-3 -9 -6 -18 -6 -20 0 -2
-4 -4 -9 -4 -5 0 -7 9 -4 20 3 11 10 20 15 20 6 0 7 -7 4 -16z m514 -4 c0 -5
-2 -10 -4 -10 -3 0 -8 5 -11 10 -3 6 -1 10 4 10 6 0 11 -4 11 -10z m-136 -9
c3 -5 -1 -12 -10 -15 -8 -3 -12 -10 -9 -16 3 -5 1 -10 -5 -10 -7 0 -9 7 -6 16
3 9 6 20 6 25 0 12 17 12 24 0z m-1531 -15 c3 3 3 -3 0 -15 -3 -12 -1 -21 6
-21 6 0 11 -4 11 -10 0 -21 -19 -9 -34 22 -19 38 -20 44 -3 29 8 -6 16 -8 20
-5z m1000 0 c4 -10 1 -13 -9 -9 -15 6 -19 23 -5 23 5 0 11 -7 14 -14z m310 6
c4 10 10 8 21 -6 20 -25 21 -42 1 -26 -8 6 -19 9 -24 6 -6 -4 -15 4 -22 16
-11 20 -11 22 3 10 13 -10 17 -10 21 0z m1658 -23 c-7 -17 -10 -19 -10 -6 -1
9 -7 17 -13 18 -7 0 -4 4 7 8 26 11 27 9 16 -20z m82 5 c-4 -12 -8 -13 -14 -3
-9 15 -2 32 11 24 5 -3 6 -13 3 -21z m-2326 -6 c-3 -8 -6 -5 -6 6 -1 11 2 17
5 13 3 -3 4 -12 1 -19z m383 12 c0 -5 -5 -10 -11 -10 -5 0 -7 5 -4 10 3 6 8
10 11 10 2 0 4 -4 4 -10z m1667 -12 c-3 -8 -6 -5 -6 6 -1 11 2 17 5 13 3 -3 4
-12 1 -19z m-1102 2 c4 -6 11 -8 16 -5 5 4 9 2 9 -3 0 -12 -29 -24 -41 -16
-12 7 -12 34 0 34 6 0 13 -5 16 -10z m490 0 c3 -5 2 -10 -4 -10 -5 0 -13 5
-16 10 -3 6 -2 10 4 10 5 0 13 -4 16 -10z m1485 0 c0 -5 -2 -10 -4 -10 -3 0
-8 5 -11 10 -3 6 -1 10 4 10 6 0 11 -4 11 -10z m-2911 -26 c3 -3 -1 -10 -8
-17 -11 -9 -14 -9 -18 1 -3 6 -9 10 -14 6 -5 -3 -9 2 -9 11 0 12 6 15 23 9 12
-3 24 -8 26 -10z m68 -9 c0 -8 -4 -12 -9 -9 -4 3 -8 9 -8 15 0 5 4 9 8 9 5 0
9 -7 9 -15z m293 -6 c0 -5 -7 -9 -15 -9 -15 0 -20 12 -9 23 8 8 24 -1 24 -14z
m280 11 c0 -5 -4 -10 -10 -10 -5 0 -10 5 -10 10 0 6 5 10 10 10 6 0 10 -4 10
-10z m527 4 c-3 -3 -12 -4 -19 -1 -8 3 -5 6 6 6 11 1 17 -2 13 -5z m-1857 -24
c0 -5 -4 -10 -10 -10 -5 0 -10 5 -10 10 0 6 5 10 10 10 6 0 10 -4 10 -10z
m3703 -276 c-3 -8 -10 -14 -15 -14 -6 0 -7 7 -4 16 3 9 6 28 7 42 l1 27 8 -28
c5 -16 6 -35 3 -43z m-48 6 c4 -22 14 -45 23 -50 14 -9 13 -10 -5 -5 -20 6
-23 3 -23 -24 0 -17 -2 -31 -4 -31 -2 0 -11 -3 -20 -6 -10 -4 -16 -1 -16 9 0
8 -4 17 -9 19 -15 5 -17 40 -3 45 7 3 12 -4 12 -18 0 -21 1 -22 20 -4 27 25
25 30 -12 43 -26 8 -28 10 -10 11 20 1 26 12 25 48 -1 29 16 0 22 -37z m104
-43 c1 -27 -3 -37 -11 -34 -7 2 -13 9 -12 15 1 7 2 31 3 55 2 33 4 38 11 22 5
-11 9 -37 9 -58z m-1649 -7 c0 -5 -9 -10 -20 -10 -11 0 -20 5 -20 10 0 6 9 10
20 10 11 0 20 -4 20 -10z m-2076 -46 c3 -8 2 -12 -4 -9 -6 3 -10 10 -10 16 0
14 7 11 14 -7z m1882 1 c9 -8 12 -20 9 -26 -5 -6 -12 -4 -21 8 -24 32 -15 45
12 18z m-796 -15 c0 -5 -7 -7 -15 -4 -8 4 -15 8 -15 10 0 2 7 4 15 4 8 0 15
-4 15 -10z m940 0 c0 -5 -4 -10 -10 -10 -5 0 -10 5 -10 10 0 6 5 10 10 10 6 0
10 -4 10 -10z m-812 -31 c-17 -10 -28 -2 -21 17 4 11 8 12 20 3 11 -10 11 -14
1 -20z m2431 -16 c-1 -21 -3 -30 -6 -20 -2 9 -9 17 -14 17 -5 0 -9 9 -9 20 0
11 7 20 15 20 11 0 15 -10 14 -37z m-2749 17 c0 -5 -2 -10 -4 -10 -3 0 -8 5
-11 10 -3 6 -1 10 4 10 6 0 11 -4 11 -10z m643 -21 c-9 -9 -12 -7 -10 9 1 14
5 18 11 12 7 -7 6 -14 -1 -21z m142 22 c3 -5 1 -12 -5 -16 -5 -3 -10 1 -10 9
0 18 6 21 15 7z m1992 -13 c-3 -8 -6 -5 -6 6 -1 11 2 17 5 13 3 -3 4 -12 1
-19z m80 -4 c1 -5 -2 -16 -7 -24 -7 -12 -12 -12 -22 -2 -9 9 -9 12 0 12 6 0 9
7 5 16 -4 11 -2 15 7 12 8 -2 15 -8 17 -14z m-3657 -30 c0 -16 -16 -19 -25 -4
-8 13 4 32 16 25 5 -4 9 -13 9 -21z m1890 16 c0 -5 -7 -10 -15 -10 -8 0 -15 5
-15 10 0 6 7 10 15 10 8 0 15 -4 15 -10z m1390 1 c0 -6 -4 -13 -10 -16 -5 -3
-10 1 -10 9 0 9 5 16 10 16 6 0 10 -4 10 -9z m-2160 -31 c-20 -13 -40 -13 -40
0 0 6 7 10 15 10 8 0 15 5 15 12 0 9 3 9 12 0 10 -10 10 -15 -2 -22z m640 26
c0 -11 -19 -15 -25 -6 -3 5 1 10 9 10 9 0 16 -2 16 -4z m1380 -6 c0 -5 -4 -10
-10 -10 -5 0 -10 5 -10 10 0 6 5 10 10 10 6 0 10 -4 10 -10z m-2280 -14 c0 -3
-4 -8 -10 -11 -5 -3 -10 -1 -10 4 0 6 5 11 10 11 6 0 10 -2 10 -4z m974 -13
c4 -9 2 -21 -4 -27 -7 -7 -10 -7 -10 1 0 6 -3 18 -6 27 -3 9 -2 16 4 16 5 0
13 -8 16 -17z m-374 -19 c0 -21 -17 -17 -23 5 -3 14 -1 18 9 14 8 -3 14 -11
14 -19z m900 16 c0 -5 -5 -10 -11 -10 -5 0 -7 5 -4 10 3 6 8 10 11 10 2 0 4
-4 4 -10z m1212 -5 c0 -5 -5 -11 -11 -13 -6 -2 -11 4 -11 13 0 9 5 15 11 13 6
-2 11 -8 11 -13z m-1507 -15 c3 -5 1 -10 -4 -10 -6 0 -11 5 -11 10 0 6 2 10 4
10 3 0 8 -4 11 -10z m1250 0 c3 -5 1 -10 -4 -10 -6 0 -11 5 -11 10 0 6 2 10 4
10 3 0 8 -4 11 -10z m465 0 c0 -5 -2 -10 -4 -10 -3 0 -8 5 -11 10 -3 6 -1 10
4 10 6 0 11 -4 11 -10z m-2545 -10 c3 -5 1 -10 -4 -10 -6 0 -11 5 -11 10 0 6
2 10 4 10 3 0 8 -4 11 -10z m369 -5 c-4 -8 -8 -15 -10 -15 -2 0 -4 7 -4 15 0
8 4 15 10 15 5 0 7 -7 4 -15z m1874 -5 c3 -8 0 -10 -7 -6 -7 4 -18 2 -26 -4
-18 -15 -20 1 -3 18 14 14 30 11 36 -8z m1862 10 c0 -5 -6 -10 -14 -10 -8 0
-18 5 -21 10 -3 6 3 10 14 10 12 0 21 -4 21 -10z m-1515 -10 c3 -5 -1 -10 -10
-10 -9 0 -13 5 -10 10 3 6 8 10 10 10 2 0 7 -4 10 -10z m-1995 -26 c0 -8 -5
-14 -11 -14 -8 0 -8 -4 0 -14 9 -10 7 -17 -5 -27 -15 -12 -16 -11 -10 9 6 18
2 24 -18 32 -14 5 -26 14 -26 20 0 6 3 9 8 7 4 -3 16 -1 27 3 24 9 35 4 35
-16z m1750 11 c0 -8 -4 -15 -9 -15 -13 0 -22 16 -14 24 11 11 23 6 23 -9z
m-2978 -37 c-7 -7 -12 -8 -12 -2 0 14 12 26 19 19 2 -3 -1 -11 -7 -17z m728 7
c-11 -14 -7 -19 13 -16 12 2 8 -16 -6 -28 -25 -20 -39 23 -15 47 17 17 23 15
8 -3z m2026 -20 c-3 -9 -11 -13 -16 -10 -8 5 -7 11 1 21 14 18 24 11 15 -11z
m-3328 -5 c-14 -22 -24 -19 -15 5 4 8 11 15 17 15 6 0 6 -7 -2 -20z m1849 -2
c-3 -8 -6 -5 -6 6 -1 11 2 17 5 13 3 -3 4 -12 1 -19z m1913 6 c0 -8 -4 -12
-10 -9 -5 3 -10 10 -10 16 0 5 5 9 10 9 6 0 10 -7 10 -16z m-3700 -4 c0 -5 -5
-10 -11 -10 -5 0 -7 5 -4 10 3 6 8 10 11 10 2 0 4 -4 4 -10z m3385 0 c3 -5 3
-15 -1 -21 -6 -11 -23 6 -24 24 0 10 18 9 25 -3z m105 -10 c0 -11 -4 -20 -9
-20 -5 0 -7 9 -4 20 3 11 7 20 9 20 2 0 4 -9 4 -20z m-3120 1 c0 -6 -4 -13
-10 -16 -5 -3 -10 1 -10 9 0 9 5 16 10 16 6 0 10 -4 10 -9z m3070 -1 c0 -5 -4
-10 -10 -10 -5 0 -10 5 -10 10 0 6 5 10 10 10 6 0 10 -4 10 -10z m1700 -10 c0
-5 -4 -10 -10 -10 -5 0 -10 5 -10 10 0 6 5 10 10 10 6 0 10 -4 10 -10z"/>
<path d="M4737 4070 c-41 -32 -42 -61 -3 -119 22 -32 37 -69 41 -99 10 -72 13
-79 44 -92 98 -40 163 163 85 266 -49 64 -118 82 -167 44z"/>
<path d="M7190 4065 c-15 -18 -6 -45 14 -45 23 0 29 18 13 40 -12 18 -16 19
-27 5z"/>
<path d="M8761 3846 c-7 -8 -22 -12 -34 -10 -12 2 -16 2 -9 -2 6 -3 12 -12 12
-19 0 -15 109 -119 185 -175 62 -46 76 -48 212 -23 71 12 93 20 93 32 0 9 5
23 10 31 8 12 12 12 18 2 12 -18 87 -10 112 13 11 10 22 26 26 37 6 20 25 21
67 3 14 -6 17 -2 17 24 0 30 -2 31 -42 33 -24 1 -59 0 -79 -1 -21 -1 -41 4
-48 12 -9 12 -21 12 -57 5 -39 -9 -47 -7 -59 8 -11 15 -15 16 -29 5 -12 -10
-19 -11 -29 -2 -10 8 -17 7 -25 -1 -9 -9 -15 -9 -24 0 -7 7 -25 12 -40 12 -16
0 -37 6 -48 13 -17 10 -22 9 -30 -3 -8 -12 -10 -12 -10 -1 0 10 -10 12 -39 7
-23 -3 -51 -1 -65 5 -20 9 -29 9 -41 -1 -10 -8 -15 -9 -15 -1 0 15 -15 14 -29
-3z m589 -138 c0 -16 -3 -19 -11 -11 -6 6 -8 16 -5 22 11 17 16 13 16 -11z"/>
<path d="M9405 3710 c-3 -5 -1 -10 4 -10 6 0 11 5 11 10 0 6 -2 10 -4 10 -3 0
-8 -4 -11 -10z"/>
<path d="M6990 3430 c-8 -4 -44 -13 -80 -20 -71 -13 -163 -55 -222 -102 -40
-31 -48 -48 -23 -48 8 0 34 -8 58 -18 66 -29 109 -41 144 -40 l32 1 -22 19
-22 19 25 -7 c22 -6 23 -5 11 10 -7 9 -19 16 -26 16 -25 0 -22 25 4 47 22 19
23 22 8 23 -10 0 -16 4 -12 10 9 14 31 2 43 -26 11 -23 42 -34 42 -14 0 6 -4
10 -10 10 -15 0 -12 32 5 54 14 18 24 17 57 -6 23 -17 51 7 42 36 -4 12 -7 27
-7 34 0 14 -24 15 -47 2z"/>
<path d="M9230 3240 c-8 -5 -12 -12 -9 -15 4 -3 12 1 19 10 14 17 11 19 -10 5z"/>
<path d="M5294 3199 c-37 -10 -104 -80 -133 -137 -40 -79 -106 -360 -88 -378
3 -3 32 -2 64 4 40 7 60 7 64 0 9 -14 56 19 131 89 l57 53 158 1 c87 1 169 3
183 4 14 1 61 3 105 4 l80 1 -35 22 c-51 31 -117 35 -168 9 -23 -12 -43 -21
-46 -21 -2 0 -9 24 -16 53 -26 112 -127 251 -212 290 -39 18 -94 21 -144 6z"/>
<path d="M6558 3181 c-34 -32 -35 -41 -5 -41 12 0 35 -7 51 -15 15 -8 35 -15
43 -15 8 0 29 -6 46 -14 34 -15 69 -27 77 -27 3 0 20 -10 38 -21 17 -11 37
-18 44 -16 7 3 -2 11 -20 19 -34 15 -42 29 -17 29 9 0 27 -12 40 -26 23 -25
25 -25 25 -7 0 14 -13 26 -40 38 -22 10 -45 24 -51 32 -7 7 -20 11 -30 8 -13
-4 -19 -1 -19 8 0 20 -23 38 -55 41 -14 2 -31 8 -37 14 -7 7 -17 8 -29 1 -13
-6 -20 -5 -26 5 -6 10 -14 8 -35 -13z"/>
<path d="M6997 2773 c-4 -3 -7 -11 -7 -17 0 -6 5 -5 12 2 6 6 9 14 7 17 -3 3
-9 2 -12 -2z"/>
<path d="M3295 2750 c-3 -5 -1 -10 4 -10 6 0 11 5 11 10 0 6 -2 10 -4 10 -3 0
-8 -4 -11 -10z"/>
<path d="M2748 2663 c6 -2 18 -2 25 0 6 3 1 5 -13 5 -14 0 -19 -2 -12 -5z"/>
<path d="M2538 2583 c-9 -2 -19 -10 -22 -18 -4 -12 -1 -12 19 -3 14 6 25 15
25 20 0 4 -1 7 -2 7 -2 -1 -10 -3 -20 -6z"/>
<path d="M2501 2486 c-10 -12 -6 -26 10 -26 11 0 19 29 10 35 -5 2 -14 -1 -20
-9z"/>
<path d="M2504 2429 c-9 -16 2 -22 21 -11 15 8 16 10 1 15 -8 3 -18 2 -22 -4z"/>
<path d="M2553 2406 c0 -17 4 -23 14 -19 11 4 11 8 1 22 -7 9 -13 17 -14 19
-1 2 -1 -8 -1 -22z"/>
<path d="M2444 2405 c-16 -12 -17 -16 -4 -24 18 -12 33 -4 26 14 -3 8 0 16 7
19 7 2 7 5 1 5 -5 1 -19 -6 -30 -14z"/>
<path d="M4470 2389 c0 -5 5 -7 10 -4 6 3 10 8 10 11 0 2 -4 4 -10 4 -5 0 -10
-5 -10 -11z"/>
<path d="M2470 2360 c0 -5 9 -10 21 -10 11 0 17 5 14 10 -3 6 -13 10 -21 10
-8 0 -14 -4 -14 -10z"/>
<path d="M4417 2301 c-48 -88 -65 -138 -83 -236 -30 -170 -13 -328 51 -458 56
-114 185 -184 270 -147 16 7 11 9 -22 9 -64 1 -109 25 -162 84 -8 9 -21 17
-28 17 -7 0 -15 11 -19 25 -3 14 -10 25 -14 25 -5 0 -11 17 -15 38 -3 22 -13
52 -22 68 -20 39 -35 222 -22 288 21 112 53 232 64 241 11 9 28 49 30 67 0 4
6 13 13 20 14 14 16 28 4 28 -4 0 -24 -31 -45 -69z"/>
<path d="M2280 2346 c-8 -11 -4 -15 19 -18 20 -3 27 0 24 8 -7 19 -30 24 -43
10z"/>
<path d="M5765 2290 c3 -5 18 -10 33 -10 21 0 24 2 12 10 -20 13 -53 13 -45 0z"/>
<path d="M2360 2250 c0 -6 7 -10 15 -10 8 0 15 2 15 4 0 2 -7 6 -15 10 -8 3
-15 1 -15 -4z"/>
<path d="M2180 2185 c0 -18 5 -25 20 -25 20 0 20 1 4 25 -9 14 -18 25 -20 25
-2 0 -4 -11 -4 -25z"/>
<path d="M2310 2200 c0 -5 5 -10 10 -10 6 0 10 5 10 10 0 6 -4 10 -10 10 -5 0
-10 -4 -10 -10z"/>
<path d="M2288 2173 c7 -3 16 -2 19 1 4 3 -2 6 -13 5 -11 0 -14 -3 -6 -6z"/>
<path d="M2512 2065 c4 -5 3 -14 -4 -22 -16 -19 -9 -22 43 -16 39 5 46 8 42
24 -6 20 -33 27 -33 8 0 -5 5 -7 10 -4 6 3 10 1 10 -4 0 -6 -9 -11 -20 -11
-11 0 -19 5 -17 12 1 6 -7 14 -18 16 -11 2 -17 1 -13 -3z"/>
<path d="M3807 2063 c-3 -5 1 -16 8 -26 10 -15 14 -15 18 -3 6 16 -18 42 -26
29z"/>
<path d="M2220 2030 c0 -5 5 -10 10 -10 6 0 10 5 10 10 0 6 -4 10 -10 10 -5 0
-10 -4 -10 -10z"/>
<path d="M2360 2036 c0 -2 9 -6 20 -9 11 -3 20 -1 20 4 0 5 -9 9 -20 9 -11 0
-20 -2 -20 -4z"/>
<path d="M2618 2033 c7 -3 16 -2 19 1 4 3 -2 6 -13 5 -11 0 -14 -3 -6 -6z"/>
<path d="M2663 2033 c9 -2 23 -2 30 0 6 3 -1 5 -18 5 -16 0 -22 -2 -12 -5z"/>
<path d="M1690 2014 c0 -20 51 -15 58 6 4 13 3 13 -10 2 -11 -9 -18 -10 -23
-2 -9 15 -25 12 -25 -6z"/>
<path d="M2496 1994 c-8 -22 -4 -25 11 -9 7 8 9 16 4 19 -5 3 -12 -1 -15 -10z"/>
<path d="M606 1933 c-9 -18 -12 -33 -7 -33 13 0 33 38 28 53 -2 7 -11 -3 -21
-20z"/>
<path d="M654 1945 c25 -19 36 -19 36 0 0 10 -10 15 -27 15 -27 -1 -27 -1 -9
-15z"/>
<path d="M1555 1920 c-3 -5 -1 -10 4 -10 6 0 11 5 11 10 0 6 -2 10 -4 10 -3 0
-8 -4 -11 -10z"/>
<path d="M241 1883 c0 -5 4 -17 9 -28 8 -18 9 -17 9 8 1 15 -3 27 -9 27 -5 0
-10 -3 -9 -7z"/>
<path d="M3280 1870 c-12 -8 -11 -10 8 -10 12 0 22 5 22 10 0 13 -11 13 -30 0z"/>
<path d="M650 1851 c0 -5 -3 -18 -6 -28 -5 -16 -4 -16 10 1 18 23 20 36 6 36
-5 0 -10 -4 -10 -9z"/>
<path d="M581 1814 c0 -11 3 -14 6 -6 3 7 2 16 -1 19 -3 4 -6 -2 -5 -13z"/>
<path d="M375 1800 c-3 -5 -1 -10 4 -10 6 0 11 5 11 10 0 6 -2 10 -4 10 -3 0
-8 -4 -11 -10z"/>
<path d="M2835 1770 c-3 -5 -1 -10 4 -10 6 0 11 5 11 10 0 6 -2 10 -4 10 -3 0
-8 -4 -11 -10z"/>
<path d="M740 1756 c-6 -9 -10 -21 -8 -28 3 -8 9 -4 17 10 15 28 9 39 -9 18z"/>
<path d="M70 1729 c0 -17 4 -28 10 -24 6 3 10 17 10 31 0 13 -4 24 -10 24 -5
0 -10 -14 -10 -31z"/>
<path d="M154 1730 c0 -13 4 -16 10 -10 7 7 7 13 0 20 -6 6 -10 3 -10 -10z"/>
<path d="M2808 1743 c6 -2 18 -2 25 0 6 3 1 5 -13 5 -14 0 -19 -2 -12 -5z"/>
<path d="M806 1675 c4 -8 10 -15 15 -15 4 0 6 7 3 15 -4 8 -10 15 -15 15 -4 0
-6 -7 -3 -15z"/>
<path d="M1200 1666 c0 -9 5 -16 10 -16 6 0 10 4 10 9 0 6 -4 13 -10 16 -5 3
-10 -1 -10 -9z"/>
<path d="M51 1634 c0 -11 3 -14 6 -6 3 7 2 16 -1 19 -3 4 -6 -2 -5 -13z"/>
<path d="M667 1620 c3 -11 7 -20 9 -20 2 0 4 9 4 20 0 11 -4 20 -9 20 -5 0 -7
-9 -4 -20z"/>
<path d="M796 1618 c-3 -13 -1 -27 4 -32 7 -7 10 -4 10 6 0 9 3 23 6 32 3 9 2
16 -4 16 -5 0 -12 -10 -16 -22z"/>
<path d="M906 1612 c-3 -6 -2 -13 4 -17 5 -3 7 -20 5 -38 -5 -32 -5 -32 4 -4
10 30 0 79 -13 59z"/>
<path d="M1985 1610 c-3 -5 -1 -10 4 -10 6 0 11 5 11 10 0 6 -2 10 -4 10 -3 0
-8 -4 -11 -10z"/>
<path d="M5381 1594 c0 -11 3 -14 6 -6 3 7 2 16 -1 19 -3 4 -6 -2 -5 -13z"/>
<path d="M1430 1570 c-6 -11 -8 -20 -6 -20 3 0 10 9 16 20 6 11 8 20 6 20 -3
0 -10 -9 -16 -20z"/>
<path d="M1772 1570 c0 -14 2 -19 5 -12 2 6 2 18 0 25 -3 6 -5 1 -5 -13z"/>
<path d="M1318 1574 c-5 -4 -8 -16 -8 -28 0 -14 3 -17 11 -9 6 6 9 19 7 28 -1
9 -6 13 -10 9z"/>
<path d="M1275 1560 c3 -5 8 -10 11 -10 2 0 4 5 4 10 0 6 -5 10 -11 10 -5 0
-7 -4 -4 -10z"/>
<path d="M1495 1550 c-3 -5 -1 -10 4 -10 6 0 11 5 11 10 0 6 -2 10 -4 10 -3 0
-8 -4 -11 -10z"/>
<path d="M2210 1555 c0 -5 5 -17 10 -25 5 -8 10 -10 10 -5 0 6 -5 17 -10 25
-5 8 -10 11 -10 5z"/>
<path d="M1317 1513 c-4 -3 -7 -13 -7 -22 1 -13 3 -13 11 2 11 19 8 33 -4 20z"/>
<path d="M5070 1505 c7 -9 15 -13 17 -11 7 7 -7 26 -19 26 -6 0 -6 -6 2 -15z"/>
<path d="M1172 1480 c0 -14 2 -19 5 -12 2 6 2 18 0 25 -3 6 -5 1 -5 -13z"/>
<path d="M2983 1493 c9 -2 23 -2 30 0 6 3 -1 5 -18 5 -16 0 -22 -2 -12 -5z"/>
<path d="M1340 1480 c0 -5 5 -10 11 -10 5 0 7 5 4 10 -3 6 -8 10 -11 10 -2 0
-4 -4 -4 -10z"/>
<path d="M875 1470 c-3 -5 -1 -10 4 -10 6 0 11 5 11 10 0 6 -2 10 -4 10 -3 0
-8 -4 -11 -10z"/>
<path d="M941 1440 c-1 -44 -1 -44 15 -21 10 14 13 26 7 30 -6 3 -13 13 -16
21 -3 8 -6 -5 -6 -30z"/>
<path d="M5080 1460 c0 -5 5 -10 11 -10 5 0 7 5 4 10 -3 6 -8 10 -11 10 -2 0
-4 -4 -4 -10z"/>
<path d="M1551 1444 c0 -11 3 -14 6 -6 3 7 2 16 -1 19 -3 4 -6 -2 -5 -13z"/>
<path d="M1821 1451 c-8 -5 -9 -11 -3 -15 5 -3 12 1 16 9 6 17 6 18 -13 6z"/>
<path d="M783 1417 c-1 -30 -1 -31 8 -8 5 14 6 28 2 32 -4 4 -9 -6 -10 -24z"/>
<path d="M1080 1433 c0 -5 5 -15 10 -23 9 -13 11 -13 19 0 5 8 7 18 5 22 -6
10 -34 11 -34 1z"/>
<path d="M1155 1430 c-3 -5 -1 -10 4 -10 6 0 11 5 11 10 0 6 -2 10 -4 10 -3 0
-8 -4 -11 -10z"/>
<path d="M2156 1425 c-9 -26 -7 -32 5 -12 6 10 9 21 6 23 -2 3 -7 -2 -11 -11z"/>
<path d="M3000 1420 c0 -5 5 -10 10 -10 6 0 10 5 10 10 0 6 -4 10 -10 10 -5 0
-10 -4 -10 -10z"/>
<path d="M830 1407 c0 -3 9 -21 19 -38 11 -17 17 -37 15 -44 -3 -6 2 -12 11
-12 19 0 19 -1 -6 44 -22 40 -39 62 -39 50z"/>
<path d="M507 1384 c3 -7 9 -14 14 -14 14 0 10 17 -5 23 -10 4 -13 1 -9 -9z"/>
<path d="M1531 1384 c0 -11 3 -14 6 -6 3 7 2 16 -1 19 -3 4 -6 -2 -5 -13z"/>
<path d="M2220 1384 c0 -8 5 -12 10 -9 6 4 8 11 5 16 -9 14 -15 11 -15 -7z"/>
<path d="M971 1374 c0 -11 3 -14 6 -6 3 7 2 16 -1 19 -3 4 -6 -2 -5 -13z"/>
<path d="M5400 1380 c0 -5 5 -10 10 -10 6 0 10 5 10 10 0 6 -4 10 -10 10 -5 0
-10 -4 -10 -10z"/>
<path d="M3490 1370 c-9 -6 -10 -10 -3 -10 6 0 15 5 18 10 8 12 4 12 -15 0z"/>
<path d="M1341 1353 c7 -12 15 -20 18 -17 3 2 -3 12 -13 22 -17 16 -18 16 -5
-5z"/>
<path d="M1697 1363 c-4 -3 -7 -13 -7 -21 0 -12 3 -12 15 -2 8 7 15 16 15 21
0 11 -14 12 -23 2z"/>
<path d="M2100 1354 c0 -8 5 -12 10 -9 6 4 8 11 5 16 -9 14 -15 11 -15 -7z"/>
<path d="M570 1345 c0 -8 4 -15 10 -15 5 0 7 7 4 15 -4 8 -8 15 -10 15 -2 0
-4 -7 -4 -15z"/>
<path d="M240 1341 c0 -5 5 -13 10 -16 6 -3 10 -2 10 4 0 5 -4 13 -10 16 -5 3
-10 2 -10 -4z"/>
<path d="M987 1343 c-4 -6 2 -20 12 -32 33 -38 43 -23 12 18 -10 13 -21 19
-24 14z"/>
<path d="M3316 1335 c4 -8 8 -15 10 -15 2 0 4 7 4 15 0 8 -4 15 -10 15 -5 0
-7 -7 -4 -15z"/>
<path d="M540 1331 c0 -5 5 -13 10 -16 6 -3 10 -2 10 4 0 5 -4 13 -10 16 -5 3
-10 2 -10 -4z"/>
<path d="M2635 1330 c3 -5 8 -10 11 -10 2 0 4 5 4 10 0 6 -5 10 -11 10 -5 0
-7 -4 -4 -10z"/>
<path d="M2250 1321 c0 -6 4 -13 10 -16 6 -3 7 1 4 9 -7 18 -14 21 -14 7z"/>
<path d="M724 1304 c3 -9 6 -18 6 -20 0 -3 5 -2 10 1 16 10 12 35 -6 35 -11 0
-14 -5 -10 -16z"/>
<path d="M931 1304 c0 -11 3 -14 6 -6 3 7 2 16 -1 19 -3 4 -6 -2 -5 -13z"/>
<path d="M1214 1305 c8 -8 18 -15 22 -15 3 0 1 7 -6 15 -7 8 -17 15 -22 15 -5
0 -3 -7 6 -15z"/>
<path d="M3426 1300 c8 -31 24 -50 24 -29 0 8 -7 24 -16 35 -14 18 -15 18 -8
-6z"/>
<path d="M5190 1301 c0 -11 3 -22 8 -24 4 -3 7 6 7 19 0 13 -3 24 -7 24 -5 0
-8 -9 -8 -19z"/>
<path d="M1090 1298 c0 -9 5 -20 10 -23 6 -4 8 -14 6 -23 -3 -10 -1 -24 4 -32
9 -13 10 -13 11 0 3 35 -4 66 -17 80 -12 12 -14 12 -14 -2z"/>
<path d="M2935 1300 c-3 -5 -2 -10 4 -10 5 0 13 5 16 10 3 6 2 10 -4 10 -5 0
-13 -4 -16 -10z"/>
<path d="M10 1289 c0 -5 5 -7 10 -4 6 3 10 8 10 11 0 2 -4 4 -10 4 -5 0 -10
-5 -10 -11z"/>
<path d="M1262 1271 c-28 -28 -24 -36 10 -18 16 8 23 18 19 27 -5 12 -10 11
-29 -9z"/>
<path d="M3746 1293 c5 -5 12 -12 16 -18 4 -6 8 -2 8 8 0 9 -7 17 -17 17 -9 0
-12 -3 -7 -7z"/>
<path d="M1056 1274 c-9 -24 -2 -26 12 -4 7 11 8 20 3 20 -5 0 -12 -7 -15 -16z"/>
<path d="M1965 1280 c-3 -5 -1 -10 4 -10 6 0 11 5 11 10 0 6 -2 10 -4 10 -3 0
-8 -4 -11 -10z"/>
<path d="M3575 1281 c-3 -5 -1 -12 5 -16 5 -3 10 1 10 9 0 18 -6 21 -15 7z"/>
<path d="M5616 1281 c-4 -7 -5 -15 -2 -18 9 -9 19 4 14 18 -4 11 -6 11 -12 0z"/>
<path d="M830 1259 c-7 -11 -10 -23 -7 -25 2 -2 9 7 15 21 14 30 7 33 -8 4z"/>
<path d="M1600 1270 c0 -15 21 -23 32 -12 6 6 2 11 -11 15 -12 3 -21 1 -21 -3z"/>
<path d="M2265 1270 c-3 -6 1 -7 9 -4 18 7 21 14 7 14 -6 0 -13 -4 -16 -10z"/>
<path d="M2356 1265 c4 -8 10 -15 15 -15 4 0 6 7 3 15 -4 8 -10 15 -15 15 -4
0 -6 -7 -3 -15z"/>
<path d="M2895 1271 c-3 -5 -1 -12 5 -16 5 -3 10 1 10 9 0 18 -6 21 -15 7z"/>
<path d="M2940 1270 c0 -5 5 -10 10 -10 6 0 10 5 10 10 0 6 -4 10 -10 10 -5 0
-10 -4 -10 -10z"/>
<path d="M3285 1270 c-3 -5 -1 -10 4 -10 6 0 11 5 11 10 0 6 -2 10 -4 10 -3 0
-8 -4 -11 -10z"/>
<path d="M740 1254 c0 -8 5 -12 10 -9 6 4 8 11 5 16 -9 14 -15 11 -15 -7z"/>
<path d="M1361 1254 c0 -11 3 -14 6 -6 3 7 2 16 -1 19 -3 4 -6 -2 -5 -13z"/>
<path d="M2142 1254 c-7 -8 -8 -14 -3 -14 10 0 25 19 20 25 -2 1 -10 -3 -17
-11z"/>
<path d="M390 1255 c0 -5 5 -17 10 -25 5 -8 10 -10 10 -5 0 6 -5 17 -10 25 -5
8 -10 11 -10 5z"/>
<path d="M910 1244 c0 -8 5 -12 10 -9 6 4 8 11 5 16 -9 14 -15 11 -15 -7z"/>
<path d="M881 1234 c0 -11 3 -14 6 -6 3 7 2 16 -1 19 -3 4 -6 -2 -5 -13z"/>
<path d="M948 1223 c3 -18 7 -21 13 -11 12 18 11 25 -4 31 -10 4 -13 -2 -9
-20z"/>
<path d="M1325 1240 c-3 -5 -1 -10 4 -10 6 0 11 5 11 10 0 6 -2 10 -4 10 -3 0
-8 -4 -11 -10z"/>
<path d="M1434 1238 c-4 -7 -3 -10 1 -5 12 10 45 -22 39 -38 -3 -7 -1 -16 5
-19 6 -4 7 -14 4 -24 -3 -9 -2 -14 2 -9 5 4 17 0 27 -10 24 -22 23 -8 -2 24
-11 14 -20 36 -20 49 0 13 -9 28 -19 34 -25 13 -28 13 -37 -2z"/>
<path d="M2925 1240 c3 -5 8 -10 11 -10 2 0 4 5 4 10 0 6 -5 10 -11 10 -5 0
-7 -4 -4 -10z"/>
<path d="M1012 1210 c1 -19 7 -29 15 -26 8 4 11 -10 9 -50 -1 -31 2 -58 6 -60
15 -9 8 103 -8 134 -19 40 -25 40 -22 2z"/>
<path d="M1146 1232 c-4 -6 -1 -23 6 -37 13 -23 14 -23 25 -6 7 11 8 23 2 32
-7 12 -9 12 -10 -1 0 -10 -3 -9 -8 4 -5 13 -10 16 -15 8z"/>
<path d="M1700 1219 c0 -6 24 -19 36 -19 2 0 4 6 4 14 0 9 -9 14 -20 13 -11
-1 -20 -4 -20 -8z"/>
<path d="M2997 1216 c-4 -10 -5 -21 -2 -24 9 -9 17 6 13 25 -3 17 -4 17 -11
-1z"/>
<path d="M5660 1215 c0 -8 5 -15 10 -15 6 0 10 7 10 15 0 8 -4 15 -10 15 -5 0
-10 -7 -10 -15z"/>
<path d="M800 1204 c0 -8 5 -12 10 -9 6 3 10 10 10 16 0 5 -4 9 -10 9 -5 0
-10 -7 -10 -16z"/>
<path d="M900 1205 c0 -8 5 -15 10 -15 6 0 10 7 10 15 0 8 -4 15 -10 15 -5 0
-10 -7 -10 -15z"/>
<path d="M1910 1211 c0 -5 5 -13 10 -16 6 -3 10 -2 10 4 0 5 -4 13 -10 16 -5
3 -10 2 -10 -4z"/>
<path d="M3120 1205 c0 -8 2 -15 4 -15 2 0 6 7 10 15 3 8 1 15 -4 15 -6 0 -10
-7 -10 -15z"/>
<path d="M3236 1203 c-6 -14 -5 -15 5 -6 7 7 10 15 7 18 -3 3 -9 -2 -12 -12z"/>
<path d="M2080 1201 c0 -6 5 -13 10 -16 6 -3 10 1 10 9 0 9 -4 16 -10 16 -5 0
-10 -4 -10 -9z"/>
<path d="M3738 1186 c-3 -14 0 -27 7 -29 7 -3 10 5 7 24 -5 35 -8 36 -14 5z"/>
<path d="M5075 1200 c-3 -5 -2 -10 4 -10 5 0 13 5 16 10 3 6 2 10 -4 10 -5 0
-13 -4 -16 -10z"/>
<path d="M1581 1191 c-7 -5 -10 -14 -7 -20 10 -16 -5 -13 -25 5 -18 16 -39 12
-39 -8 0 -6 9 -8 19 -5 13 3 18 0 15 -7 -3 -7 -1 -23 4 -35 8 -22 9 -22 25 -6
9 9 17 13 17 8 1 -10 30 28 30 39 0 4 -7 8 -16 8 -10 0 -14 6 -10 15 6 17 6
18 -13 6z"/>
<path d="M2190 1184 c0 -8 5 -12 10 -9 6 4 8 11 5 16 -9 14 -15 11 -15 -7z"/>
<path d="M3350 1194 c0 -8 43 -43 54 -44 5 0 -1 11 -14 25 -22 24 -40 32 -40
19z"/>
<path d="M5415 1184 c9 -10 13 -24 10 -38 -5 -15 -4 -17 3 -7 12 16 27 -3 16
-21 -4 -7 -3 -8 4 -4 7 4 12 15 12 25 0 19 -35 61 -51 61 -6 0 -3 -7 6 -16z"/>
<path d="M5639 1186 c7 -8 17 -13 22 -11 4 3 13 -3 19 -14 6 -12 16 -18 25
-15 18 7 20 41 3 41 -7 0 -29 3 -48 8 -31 7 -33 6 -21 -9z"/>
<path d="M761 1174 c0 -11 3 -14 6 -6 3 7 2 16 -1 19 -3 4 -6 -2 -5 -13z"/>
<path d="M1822 1174 c-18 -20 -28 -84 -13 -84 6 0 11 12 11 26 0 14 5 34 11
46 13 24 8 31 -9 12z"/>
<path d="M2820 1171 c-7 -15 -7 -21 0 -21 12 0 25 28 17 36 -3 3 -10 -4 -17
-15z"/>
<path d="M3450 1185 c-13 -49 -2 -76 20 -50 8 9 8 15 2 15 -6 0 -13 10 -15 23
-2 12 -5 18 -7 12z"/>
<path d="M3655 1180 c-3 -5 -1 -10 4 -10 6 0 11 5 11 10 0 6 -2 10 -4 10 -3 0
-8 -4 -11 -10z"/>
<path d="M788 1155 c-4 -17 -1 -25 9 -25 11 0 11 -6 -1 -35 -8 -19 -11 -35 -5
-35 5 0 9 5 9 11 0 6 7 8 16 5 13 -5 14 -1 9 27 -9 38 -23 77 -29 77 -2 0 -6
-11 -8 -25z"/>
<path d="M1294 1169 c-3 -6 -2 -15 3 -20 5 -5 9 -1 9 11 0 23 -2 24 -12 9z"/>
<path d="M1350 1171 c0 -5 5 -13 10 -16 6 -3 10 -2 10 4 0 5 -4 13 -10 16 -5
3 -10 2 -10 -4z"/>
<path d="M1905 1170 c3 -5 8 -10 11 -10 2 0 4 5 4 10 0 6 -5 10 -11 10 -5 0
-7 -4 -4 -10z"/>
<path d="M5620 1166 c0 -14 29 -31 38 -22 5 5 -23 36 -32 36 -3 0 -6 -6 -6
-14z"/>
<path d="M670 1160 c0 -5 5 -10 11 -10 5 0 7 5 4 10 -3 6 -8 10 -11 10 -2 0
-4 -4 -4 -10z"/>
<path d="M1447 1155 c-10 -7 -15 -19 -11 -28 3 -9 1 -24 -4 -34 -10 -17 -11
-17 -17 -1 -4 9 -13 14 -21 11 -12 -4 -10 -9 6 -23 23 -20 26 -43 7 -62 -15
-15 -20 -58 -6 -58 5 0 9 9 9 19 0 26 10 51 21 51 5 0 9 -7 9 -15 0 -8 5 -15
10 -15 15 0 12 27 -5 44 -17 17 -20 36 -5 36 6 0 10 15 10 34 0 19 6 36 13 39
6 2 10 7 7 10 -3 3 -13 0 -23 -8z"/>
<path d="M1681 1154 c0 -11 3 -14 6 -6 3 7 2 16 -1 19 -3 4 -6 -2 -5 -13z"/>
<path d="M4915 1160 c-3 -5 -2 -10 4 -10 5 0 13 5 16 10 3 6 2 10 -4 10 -5 0
-13 -4 -16 -10z"/>
<path d="M4980 1159 c0 -5 5 -7 10 -4 6 3 10 8 10 11 0 2 -4 4 -10 4 -5 0 -10
-5 -10 -11z"/>
<path d="M5370 1161 c0 -5 5 -13 10 -16 6 -3 10 -2 10 4 0 5 -4 13 -10 16 -5
3 -10 2 -10 -4z"/>
<path d="M840 1151 c0 -6 5 -13 10 -16 6 -3 10 1 10 9 0 9 -4 16 -10 16 -5 0
-10 -4 -10 -9z"/>
<path d="M955 1150 c-3 -5 -1 -10 4 -10 6 0 11 5 11 10 0 6 -2 10 -4 10 -3 0
-8 -4 -11 -10z"/>
<path d="M2030 1135 c0 -18 -5 -25 -20 -25 -11 0 -20 -4 -20 -10 0 -13 6 -13
40 5 32 16 42 55 15 55 -9 0 -15 -9 -15 -25z"/>
<path d="M3190 1150 c0 -5 6 -10 14 -10 8 0 18 5 21 10 3 6 -3 10 -14 10 -12
0 -21 -4 -21 -10z"/>
<path d="M5775 1151 c-3 -6 4 -9 15 -8 11 1 20 5 20 9 0 11 -28 10 -35 -1z"/>
<path d="M1630 1140 c0 -5 5 -10 10 -10 6 0 10 5 10 10 0 6 -4 10 -10 10 -5 0
-10 -4 -10 -10z"/>
<path d="M2950 1143 c1 -14 28 -44 32 -36 3 4 -3 16 -14 26 -10 9 -18 14 -18
10z"/>
<path d="M3260 1135 c7 -9 15 -13 17 -11 7 7 -7 26 -19 26 -6 0 -6 -6 2 -15z"/>
<path d="M5037 1144 c-4 -4 -7 -14 -7 -23 0 -11 3 -12 11 -4 6 6 10 16 7 23
-2 6 -7 8 -11 4z"/>
<path d="M740 1131 c0 -6 4 -13 10 -16 6 -3 7 1 4 9 -7 18 -14 21 -14 7z"/>
<path d="M3040 1131 c0 -6 4 -13 10 -16 6 -3 7 1 4 9 -7 18 -14 21 -14 7z"/>
<path d="M3166 1123 c-4 -9 -1 -20 5 -24 8 -4 10 -19 6 -40 -6 -32 -6 -33 8
-15 19 25 19 52 0 60 -8 3 -12 12 -9 21 3 8 4 15 1 15 -3 0 -8 -8 -11 -17z"/>
<path d="M5230 1125 c-7 -8 -9 -15 -6 -15 4 0 14 7 22 15 9 8 11 15 6 15 -5 0
-15 -7 -22 -15z"/>
<path d="M1694 1122 c-6 -4 -17 -17 -23 -30 -12 -22 -11 -23 8 -12 12 6 21 18
21 26 0 9 5 12 12 8 7 -4 8 -3 4 4 -8 14 -8 14 -22 4z"/>
<path d="M2716 1113 c-6 -14 -5 -15 5 -6 7 7 10 15 7 18 -3 3 -9 -2 -12 -12z"/>
<path d="M3640 1119 c0 -5 5 -7 10 -4 6 3 10 8 10 11 0 2 -4 4 -10 4 -5 0 -10
-5 -10 -11z"/>
<path d="M5098 1125 c-9 -9 4 -55 15 -55 6 0 7 3 4 7 -4 3 5 17 19 30 l25 23
-29 0 c-16 0 -31 -2 -34 -5z"/>
<path d="M5470 1114 c0 -8 5 -12 10 -9 6 3 10 10 10 16 0 5 -4 9 -10 9 -5 0
-10 -7 -10 -16z"/>
<path d="M5634 1119 c-4 -6 -20 -8 -39 -5 -21 4 -36 2 -41 -5 -5 -9 -2 -10 10
-6 20 8 63 -17 48 -27 -6 -3 -12 -1 -14 6 -3 8 -9 8 -24 0 -17 -10 -17 -11 -1
-12 17 0 40 -40 28 -50 -12 -10 -31 -50 -31 -66 0 -13 5 -11 25 7 13 13 25 32
25 41 0 9 9 23 20 31 18 12 19 18 10 42 -6 16 -9 34 -6 42 6 16 0 17 -10 2z"/>
<path d="M876 1105 c-3 -9 0 -15 9 -15 8 0 15 7 15 15 0 8 -4 15 -9 15 -5 0
-11 -7 -15 -15z"/>
<path d="M991 1112 c-1 -7 -5 -10 -11 -7 -6 3 -10 -4 -10 -17 0 -20 1 -21 16
-6 9 9 14 22 11 30 -4 10 -6 10 -6 0z"/>
<path d="M2265 1110 c3 -5 8 -10 11 -10 2 0 4 5 4 10 0 6 -5 10 -11 10 -5 0
-7 -4 -4 -10z"/>
<path d="M2870 1100 c0 -11 2 -20 4 -20 2 0 6 9 9 20 3 11 1 20 -4 20 -5 0 -9
-9 -9 -20z"/>
<path d="M3350 1104 c0 -8 5 -12 10 -9 6 4 8 11 5 16 -9 14 -15 11 -15 -7z"/>
<path d="M691 1094 c0 -11 3 -14 6 -6 3 7 2 16 -1 19 -3 4 -6 -2 -5 -13z"/>
<path d="M1630 1095 c7 -9 15 -13 17 -11 7 7 -7 26 -19 26 -6 0 -6 -6 2 -15z"/>
<path d="M1920 1099 c0 -5 5 -7 10 -4 6 3 10 8 10 11 0 2 -4 4 -10 4 -5 0 -10
-5 -10 -11z"/>
<path d="M2740 1100 c0 -5 -11 -10 -25 -10 -14 0 -25 -4 -25 -10 0 -5 -9 -10
-20 -10 -17 0 -18 -2 -8 -13 13 -15 48 -11 48 4 0 5 6 9 14 9 8 0 17 6 19 13
4 8 12 5 24 -11 l19 -23 11 24 c13 28 6 42 -13 26 -8 -7 -14 -7 -19 1 -8 13
-25 13 -25 0z"/>
<path d="M3240 1089 c0 -19 -2 -21 -10 -9 -8 12 -10 11 -10 -6 0 -28 23 -37
37 -15 8 12 7 22 -3 36 -13 18 -14 18 -14 -6z"/>
<path d="M3596 1093 c-6 -14 -5 -15 5 -6 7 7 10 15 7 18 -3 3 -9 -2 -12 -12z"/>
<path d="M1097 1082 c2 -10 11 -19 18 -19 10 0 11 5 4 19 -5 10 -14 18 -18 18
-5 0 -7 -8 -4 -18z"/>
<path d="M1150 1091 c0 -10 19 -25 25 -20 1 2 -3 10 -11 17 -8 7 -14 8 -14 3z"/>
<path d="M1275 1090 c-3 -5 -1 -10 4 -10 6 0 11 5 11 10 0 6 -2 10 -4 10 -3 0
-8 -4 -11 -10z"/>
<path d="M1487 1093 c-4 -3 -7 -20 -6 -37 l1 -31 8 35 c9 36 8 45 -3 33z"/>
<path d="M3090 1092 c0 -5 -9 -12 -21 -15 -14 -4 -19 -12 -17 -24 2 -10 -3
-23 -12 -30 -18 -14 -10 -26 9 -14 8 5 14 19 15 32 1 18 8 25 29 27 16 2 27 8
24 15 -4 14 -27 22 -27 9z"/>
<path d="M5144 1073 c-10 -49 -16 -61 -21 -40 -3 9 -10 17 -18 17 -8 0 -11 -7
-8 -19 4 -15 12 -18 34 -16 28 4 40 -8 19 -18 -6 -3 -5 -4 2 -3 7 1 15 11 16
22 2 10 10 24 17 30 19 15 7 54 -16 54 -12 0 -21 -9 -25 -27z"/>
<path d="M901 1076 c-7 -9 -9 -16 -3 -16 5 0 13 -10 16 -22 6 -22 7 -22 17 -4
7 11 8 21 2 25 -6 3 -12 12 -14 20 -4 10 -7 10 -18 -3z"/>
<path d="M1510 1070 c-9 -16 -8 -18 5 -14 8 4 15 12 15 20 0 20 -7 17 -20 -6z"/>
<path d="M1595 1080 c3 -5 8 -10 11 -10 2 0 4 5 4 10 0 6 -5 10 -11 10 -5 0
-7 -4 -4 -10z"/>
<path d="M1897 1084 c-12 -12 -8 -21 13 -27 22 -6 28 -47 8 -47 -9 -1 -7 -5 3
-13 9 -7 19 -21 22 -32 3 -11 5 2 4 28 -2 48 -34 107 -50 91z"/>
<path d="M2140 1073 c0 -10 4 -24 8 -31 6 -8 9 -2 9 18 0 16 -4 30 -9 30 -4 0
-8 -8 -8 -17z"/>
<path d="M2215 1080 c3 -6 13 -10 21 -10 8 0 14 -8 14 -17 0 -14 2 -15 13 -4
10 11 9 14 -1 18 -6 3 -10 8 -8 12 3 4 -7 8 -20 9 -15 1 -22 -2 -19 -8z"/>
<path d="M5363 1078 c-25 -32 -24 -38 3 -38 21 0 25 3 17 11 -6 6 -9 18 -6 25
6 17 -1 18 -14 2z"/>
<path d="M5682 1060 c2 -30 13 -37 33 -22 6 4 2 16 -13 29 l-22 23 2 -30z"/>
<path d="M5846 1074 c-4 -9 -4 -19 -1 -22 3 -3 5 -2 5 3 0 4 7 2 15 -5 12 -10
15 -10 15 3 0 8 -6 20 -14 26 -11 9 -15 8 -20 -5z"/>
<path d="M1700 1065 c0 -8 4 -15 9 -15 5 0 11 -10 13 -22 3 -23 3 -23 9 -2 4
14 0 27 -12 38 -16 14 -19 14 -19 1z"/>
<path d="M2086 1071 c-4 -7 -5 -15 -2 -18 9 -9 19 4 14 18 -4 11 -6 11 -12 0z"/>
<path d="M2903 1065 c-3 -9 -3 -18 -1 -21 3 -3 8 4 11 16 6 23 -1 27 -10 5z"/>
<path d="M3136 1071 c-4 -5 -3 -16 0 -25 6 -15 8 -15 20 1 7 10 14 21 14 26 0
10 -28 9 -34 -2z"/>
<path d="M3400 1070 c0 -5 5 -10 10 -10 6 0 10 5 10 10 0 6 -4 10 -10 10 -5 0
-10 -4 -10 -10z"/>
<path d="M3440 1070 c0 -5 5 -10 10 -10 6 0 10 5 10 10 0 6 -4 10 -10 10 -5 0
-10 -4 -10 -10z"/>
<path d="M1760 1061 c0 -6 4 -13 10 -16 6 -3 7 1 4 9 -7 18 -14 21 -14 7z"/>
<path d="M2325 1060 c3 -5 8 -10 11 -10 2 0 4 5 4 10 0 6 -5 10 -11 10 -5 0
-7 -4 -4 -10z"/>
<path d="M2420 1060 c0 -5 5 -10 10 -10 6 0 10 5 10 10 0 6 -4 10 -10 10 -5 0
-10 -4 -10 -10z"/>
<path d="M2947 1063 c-4 -3 -7 -15 -7 -26 0 -25 13 -14 15 13 2 22 1 23 -8 13z"/>
<path d="M3579 1063 c-1 -5 -2 -24 -4 -44 -2 -20 -8 -52 -13 -72 -14 -51 0
-46 19 6 11 31 19 41 33 39 11 -2 15 1 11 8 -4 6 1 17 10 24 17 12 16 13 -1
13 -11 0 -24 -7 -31 -16 -11 -14 -13 -14 -14 4 -1 11 -1 26 0 33 1 6 -1 12 -4
12 -3 0 -5 -3 -6 -7z"/>
<path d="M4920 1060 c0 -5 5 -10 10 -10 6 0 10 5 10 10 0 6 -4 10 -10 10 -5 0
-10 -4 -10 -10z"/>
<path d="M5411 1054 c0 -11 3 -14 6 -6 3 7 2 16 -1 19 -3 4 -6 -2 -5 -13z"/>
<path d="M620 1055 c0 -19 22 -44 35 -39 8 4 13 10 10 14 -3 5 0 11 5 13 6 3
5 4 -2 3 -7 -2 -21 1 -30 6 -10 5 -18 6 -18 3z"/>
<path d="M1580 1051 c0 -6 5 -13 11 -17 7 -4 8 -9 1 -13 -6 -4 -2 -20 9 -41
14 -25 19 -29 19 -15 0 48 -13 95 -26 95 -8 0 -14 -4 -14 -9z"/>
<path d="M2865 1040 c-4 -12 -5 -24 -2 -27 3 -2 8 5 12 17 4 12 5 24 2 27 -3
2 -8 -5 -12 -17z"/>
<path d="M4956 1044 c-4 -9 -4 -19 -1 -22 2 -3 7 3 11 12 4 9 4 19 1 22 -2 3
-7 -3 -11 -12z"/>
<path d="M5280 1051 c0 -4 11 -17 25 -27 14 -10 25 -28 25 -39 0 -11 5 -27 10
-35 8 -11 9 -7 4 14 -4 18 -2 31 6 36 9 6 7 11 -9 19 -11 7 -21 18 -21 26 0 8
-9 15 -20 15 -11 0 -20 -4 -20 -9z"/>
<path d="M273 1025 c0 -27 4 -30 25 -17 10 7 8 12 -7 26 -18 16 -18 16 -18 -9z"/>
<path d="M1082 1025 c-9 -19 -8 -26 5 -37 14 -11 15 -11 11 2 -3 8 -1 23 3 32
5 9 5 19 0 22 -4 3 -13 -5 -19 -19z"/>
<path d="M1240 1041 c0 -6 5 -13 10 -16 6 -3 10 1 10 9 0 9 -4 16 -10 16 -5 0
-10 -4 -10 -9z"/>
<path d="M5040 1037 c0 -8 7 -17 15 -21 8 -3 15 -3 15 0 0 3 -7 12 -15 20 -13
13 -15 13 -15 1z"/>
<path d="M5470 1040 c0 -5 5 -10 10 -10 6 0 10 5 10 10 0 6 -4 10 -10 10 -5 0
-10 -4 -10 -10z"/>
<path d="M684 1021 c-33 -17 -71 -51 -57 -51 5 0 14 5 20 11 14 14 36 2 27
-13 -4 -6 -2 -8 3 -5 6 4 16 0 23 -8 10 -12 10 -18 0 -30 -7 -9 -10 -18 -6
-22 3 -4 12 2 20 12 18 25 1 86 -23 78 -9 -3 -5 4 9 15 32 26 24 33 -16 13z"/>
<path d="M1681 1032 c-1 -8 -6 -10 -13 -6 -10 5 -10 4 -1 -6 15 -16 28 -8 20
12 -4 11 -6 11 -6 0z"/>
<path d="M2180 1023 c0 -13 5 -23 11 -23 6 0 8 -9 4 -20 -4 -11 -2 -20 4 -20
15 0 14 23 -4 56 -14 27 -15 27 -15 7z"/>
<path d="M2587 1010 c6 -34 23 -50 23 -22 0 12 -4 22 -9 22 -5 0 -11 6 -14 13
-2 6 -2 1 0 -13z"/>
<path d="M2615 1030 c-3 -5 -1 -10 5 -10 7 0 10 -7 6 -15 -3 -8 -1 -15 5 -15
5 0 7 -11 3 -25 -4 -15 -2 -25 5 -25 6 0 11 3 12 8 0 4 2 17 5 30 3 16 0 21
-8 17 -7 -4 -4 1 7 10 17 14 18 17 5 25 -20 13 -37 12 -45 0z"/>
<path d="M4844 1029 c-3 -6 -1 -16 5 -22 8 -8 11 -5 11 11 0 24 -5 28 -16 11z"/>
<path d="M5231 1019 c-11 -19 -11 -21 4 -15 9 3 19 6 21 6 2 0 4 7 4 15 0 21
-13 19 -29 -6z"/>
<path d="M840 1021 c0 -20 13 -41 25 -41 8 0 11 -9 8 -24 -4 -17 -10 -23 -21
-19 -10 4 -13 2 -8 -5 9 -14 36 -16 36 -2 0 5 9 17 19 27 19 18 19 18 -4 46
-23 26 -55 37 -55 18z"/>
<path d="M1960 1006 c0 -42 28 -43 44 -1 4 11 4 16 0 13 -4 -4 -15 -3 -25 3
-16 8 -19 6 -19 -15z"/>
<path d="M2437 1013 c4 -11 3 -14 -5 -9 -7 4 -12 2 -12 -3 0 -16 27 -13 33 3
6 15 -1 26 -14 26 -5 0 -5 -7 -2 -17z"/>
<path d="M2736 1021 c-4 -7 -5 -15 -2 -18 9 -9 19 4 14 18 -4 11 -6 11 -12 0z"/>
<path d="M3220 1019 c0 -5 5 -7 10 -4 6 3 10 8 10 11 0 2 -4 4 -10 4 -5 0 -10
-5 -10 -11z"/>
<path d="M5429 1021 c7 -5 11 -13 7 -19 -3 -6 -2 -13 4 -17 6 -4 10 5 10 19 0
18 -5 26 -17 26 -14 0 -15 -2 -4 -9z"/>
<path d="M5820 1015 c0 -8 4 -15 10 -15 5 0 7 7 4 15 -4 8 -8 15 -10 15 -2 0
-4 -7 -4 -15z"/>
<path d="M145 999 c-4 -11 -4 -23 -1 -26 3 -4 6 1 6 10 0 10 5 17 10 17 6 0
10 5 10 10 0 18 -19 10 -25 -11z"/>
<path d="M505 1010 c3 -5 8 -10 11 -10 2 0 4 5 4 10 0 6 -5 10 -11 10 -5 0 -7
-4 -4 -10z"/>
<path d="M557 1000 c-10 -35 -9 -40 7 -40 8 0 16 7 20 15 3 8 1 15 -4 15 -5 0
-10 8 -12 18 -3 13 -5 11 -11 -8z"/>
<path d="M1143 998 c-7 -21 -9 -29 -12 -52 0 -5 -8 -2 -18 5 -15 13 -15 12 -5
-8 16 -29 15 -32 -11 -42 -16 -6 -23 -18 -25 -41 -2 -29 0 -31 13 -20 8 7 15
20 15 29 0 13 2 13 9 2 7 -11 11 -9 21 8 6 13 9 29 6 36 -3 8 -1 15 3 17 8 3
23 88 16 88 -2 0 -7 -10 -12 -22z"/>
<path d="M2900 1004 c0 -8 5 -12 10 -9 6 3 10 10 10 16 0 5 -4 9 -10 9 -5 0
-10 -7 -10 -16z"/>
<path d="M3127 1000 c4 -14 14 -20 33 -20 33 0 59 -25 42 -42 -8 -8 -5 -18 14
-35 32 -29 41 -23 25 15 -7 16 -9 41 -5 57 6 22 4 26 -7 19 -20 -12 -38 -14
-45 -3 -3 5 -9 7 -14 4 -4 -3 -13 2 -20 10 -18 21 -29 19 -23 -5z"/>
<path d="M3480 1009 c0 -5 5 -7 10 -4 6 3 10 8 10 11 0 2 -4 4 -10 4 -5 0 -10
-5 -10 -11z"/>
<path d="M3655 1011 c-6 -10 33 -36 41 -28 3 2 2 12 -2 21 -7 18 -29 22 -39 7z"/>
<path d="M5400 1010 c0 -8 5 -22 10 -30 9 -13 10 -13 10 0 0 8 -5 22 -10 30
-9 13 -10 13 -10 0z"/>
<path d="M5510 1010 c0 -5 7 -7 15 -4 8 4 15 8 15 10 0 2 -7 4 -15 4 -8 0 -15
-4 -15 -10z"/>
<path d="M5650 1008 c0 -10 5 -18 10 -18 6 0 8 -10 4 -24 -6 -26 12 -44 28
-28 6 6 6 12 -1 16 -5 4 -8 13 -4 22 8 21 33 -2 27 -24 -4 -13 -2 -12 7 2 10
16 9 21 -6 32 -10 7 -22 11 -27 8 -5 -3 -16 2 -23 12 -13 18 -14 18 -15 2z"/>
<path d="M925 1000 c3 -5 8 -10 11 -10 2 0 4 5 4 10 0 6 -5 10 -11 10 -5 0 -7
-4 -4 -10z"/>
<path d="M1290 999 c-11 -8 -12 -12 -2 -16 15 -6 16 -45 0 -61 -9 -9 -9 -15 0
-24 9 -9 12 -8 12 5 0 9 4 17 8 17 4 0 8 20 8 45 1 47 -2 51 -26 34z"/>
<path d="M1357 996 c-4 -10 -5 -21 -2 -24 9 -9 17 6 13 25 -3 17 -4 17 -11 -1z"/>
<path d="M1512 988 c2 -13 11 -24 20 -26 13 -3 16 1 11 14 -5 13 -3 15 8 9 12
-8 12 -6 0 8 -20 25 -43 22 -39 -5z"/>
<path d="M2503 993 c-3 -10 -8 -21 -10 -25 -2 -4 3 -5 11 -2 9 3 16 15 16 25
0 24 -9 25 -17 2z"/>
<path d="M2756 1001 c-3 -5 -3 -30 1 -57 5 -40 7 -44 15 -25 4 13 6 27 3 32
-4 5 0 6 8 3 8 -3 18 -1 22 5 6 11 -7 15 -35 11 -12 -1 -13 1 -2 11 6 7 12 17
12 21 0 11 -17 10 -24 -1z"/>
<path d="M3086 988 c-10 -39 -7 -44 9 -14 17 33 18 36 6 36 -5 0 -11 -10 -15
-22z"/>
<path d="M5026 1001 c-3 -5 1 -14 8 -20 16 -13 32 2 21 19 -8 12 -22 13 -29 1z"/>
<path d="M5187 1003 c-4 -3 -7 -11 -7 -17 0 -6 5 -5 12 2 6 6 9 14 7 17 -3 3
-9 2 -12 -2z"/>
<path d="M755 987 c-4 -9 -2 -23 4 -31 6 -8 13 -27 14 -44 1 -16 5 -28 10 -25
4 2 7 -4 7 -14 0 -15 2 -15 22 4 12 13 18 26 14 30 -5 4 -11 2 -13 -4 -7 -20
-25 -15 -19 5 3 9 1 24 -4 32 -6 9 -5 20 3 30 6 8 7 12 3 8 -5 -4 -15 0 -22
10 -12 16 -13 16 -19 -1z"/>
<path d="M1010 985 c-8 -9 -8 -15 -2 -15 12 0 26 19 19 26 -2 2 -10 -2 -17
-11z"/>
<path d="M1700 976 c0 -13 -6 -26 -12 -29 -7 -3 -3 -4 9 -4 24 1 39 22 22 32
-5 4 -7 11 -4 16 4 5 1 9 -4 9 -6 0 -11 -11 -11 -24z"/>
<path d="M1740 989 c-8 -5 -10 -9 -5 -9 6 0 15 -10 20 -22 6 -13 19 -24 30
-26 19 -3 19 -2 3 11 -10 8 -18 21 -18 30 0 21 -13 28 -30 16z"/>
<path d="M2251 984 c0 -11 3 -14 6 -6 3 7 2 16 -1 19 -3 4 -6 -2 -5 -13z"/>
<path d="M2291 989 c0 -8 5 -23 12 -33 12 -16 14 -16 32 5 l20 22 -27 -7 c-20
-4 -28 -2 -31 11 -4 14 -5 15 -6 2z"/>
<path d="M2544 975 c0 -14 4 -25 9 -25 10 0 9 38 -2 44 -5 3 -8 -5 -7 -19z"/>
<path d="M3415 990 c-3 -5 -1 -10 4 -10 6 0 11 5 11 10 0 6 -2 10 -4 10 -3 0
-8 -4 -11 -10z"/>
<path d="M4942 984 c1 -9 9 -19 16 -22 9 -3 13 2 10 14 -1 9 -9 19 -16 22 -9
3 -13 -2 -10 -14z"/>
<path d="M1646 976 c3 -9 11 -16 16 -16 13 0 5 23 -10 28 -7 2 -10 -2 -6 -12z"/>
<path d="M4805 980 c-3 -5 -4 -10 -1 -10 2 0 12 -3 20 -6 12 -5 15 -2 10 10
-7 18 -20 21 -29 6z"/>
<path d="M5250 971 c0 -10 6 -33 13 -50 l13 -31 12 33 c16 44 15 52 -3 37 -13
-10 -15 -9 -15 9 0 11 -4 21 -10 21 -5 0 -10 -8 -10 -19z"/>
<path d="M5520 976 c0 -9 4 -16 10 -16 5 0 6 -7 3 -17 -4 -11 -3 -14 5 -9 16
10 15 24 -3 42 -13 14 -15 14 -15 0z"/>
<path d="M1815 970 c-3 -5 -1 -10 4 -10 6 0 11 5 11 10 0 6 -2 10 -4 10 -3 0
-8 -4 -11 -10z"/>
<path d="M4990 962 c0 -15 5 -19 20 -15 24 6 21 26 -3 31 -11 2 -17 -3 -17
-16z"/>
<path d="M5200 970 c-8 -5 -18 -6 -22 -4 -4 3 -8 0 -8 -5 0 -10 14 -15 33 -12
4 0 7 -7 8 -16 0 -14 3 -13 11 5 13 27 0 46 -22 32z"/>
<path d="M926 946 c3 -14 1 -27 -6 -31 -9 -6 -9 -9 0 -15 9 -6 9 -13 1 -29 -7
-12 -17 -19 -22 -15 -6 3 -3 11 7 19 17 12 16 13 -2 23 -28 15 -48 -15 -28
-43 12 -16 17 -17 39 -5 23 13 30 31 27 73 -1 9 3 17 8 17 5 0 7 7 4 15 -10
26 -35 18 -28 -9z"/>
<path d="M1042 950 c15 -23 28 -26 28 -6 0 8 -7 17 -16 20 -24 9 -25 8 -12
-14z"/>
<path d="M1868 965 c-11 -11 3 -35 21 -35 10 0 12 3 5 8 -6 4 -13 13 -15 20
-3 7 -7 10 -11 7z"/>
<path d="M2121 953 c-1 -12 4 -25 9 -28 12 -7 12 2 0 30 -8 19 -9 19 -9 -2z"/>
<path d="M2420 961 c0 -5 5 -13 10 -16 6 -3 10 -2 10 4 0 5 -4 13 -10 16 -5 3
-10 2 -10 -4z"/>
<path d="M2994 958 c-4 -7 -3 -8 4 -4 7 4 12 2 12 -4 0 -6 5 -8 10 -5 11 7 4
25 -10 25 -5 0 -12 -5 -16 -12z"/>
<path d="M3160 963 c0 -6 -8 -9 -17 -7 -11 3 -23 -3 -31 -16 -10 -17 -10 -20
3 -20 8 0 15 -9 15 -20 0 -11 6 -20 14 -20 9 0 12 7 9 23 -4 17 -2 19 5 8 9
-12 12 -10 18 13 4 16 2 32 -5 39 -8 8 -11 8 -11 0z"/>
<path d="M1422 948 c-7 -7 -12 -19 -12 -27 0 -14 -2 -14 -10 -1 -5 8 -12 11
-17 7 -9 -10 10 -42 25 -42 6 0 13 -3 17 -7 4 -3 -4 -5 -18 -4 -18 2 -24 -1
-20 -10 3 -8 0 -14 -6 -14 -6 0 -11 -9 -11 -20 0 -11 5 -20 10 -20 6 0 10 7
10 16 0 19 21 42 35 37 6 -2 10 18 10 47 0 28 0 50 0 50 -1 0 -6 -5 -13 -12z"/>
<path d="M1970 950 c0 -5 9 -14 19 -19 16 -9 18 -8 14 9 -5 20 -33 29 -33 10z"/>
<path d="M2340 950 c0 -5 4 -10 9 -10 6 0 13 5 16 10 3 6 -1 10 -9 10 -9 0
-16 -4 -16 -10z"/>
<path d="M2660 951 c0 -6 7 -11 16 -11 11 0 14 -5 10 -16 -3 -9 -6 -18 -6 -20
0 -9 -20 -3 -34 12 -15 14 -17 14 -32 -1 -21 -20 -2 -45 27 -38 12 3 24 0 29
-6 4 -8 12 -1 20 20 9 21 10 36 3 47 -12 19 -33 28 -33 13z"/>
<path d="M3436 951 c-4 -7 -5 -15 -2 -18 9 -9 19 4 14 18 -4 11 -6 11 -12 0z"/>
<path d="M3487 945 c-4 -8 -2 -17 3 -20 6 -4 10 -4 10 -1 0 2 3 11 6 20 3 9 2
16 -4 16 -5 0 -12 -7 -15 -15z"/>
<path d="M4087 953 c-4 -3 -7 -11 -7 -17 0 -6 5 -5 12 2 6 6 9 14 7 17 -3 3
-9 2 -12 -2z"/>
<path d="M1 934 c0 -11 3 -14 6 -6 3 7 2 16 -1 19 -3 4 -6 -2 -5 -13z"/>
<path d="M506 943 c-9 -10 -7 -53 3 -53 11 0 21 49 11 55 -4 2 -10 2 -14 -2z"/>
<path d="M670 940 c-13 -8 -12 -10 3 -10 9 0 17 5 17 10 0 12 -1 12 -20 0z"/>
<path d="M900 934 c0 -8 5 -12 10 -9 6 3 10 10 10 16 0 5 -4 9 -10 9 -5 0 -10
-7 -10 -16z"/>
<path d="M1360 939 c0 -5 5 -7 10 -4 6 3 10 8 10 11 0 2 -4 4 -10 4 -5 0 -10
-5 -10 -11z"/>
<path d="M1460 936 c0 -9 5 -16 10 -16 6 0 10 4 10 9 0 6 -4 13 -10 16 -5 3
-10 -1 -10 -9z"/>
<path d="M3676 935 c4 -8 10 -12 15 -9 14 8 10 24 -6 24 -9 0 -12 -6 -9 -15z"/>
<path d="M4755 940 c3 -5 8 -10 11 -10 2 0 4 5 4 10 0 6 -5 10 -11 10 -5 0 -7
-4 -4 -10z"/>
<path d="M5390 935 c0 -8 5 -15 10 -15 6 0 10 7 10 15 0 8 -4 15 -10 15 -5 0
-10 -7 -10 -15z"/>
<path d="M37 934 c12 -3 24 -13 27 -22 3 -12 4 -11 3 3 -2 14 -10 21 -27 22
-21 1 -21 1 -3 -3z"/>
<path d="M1550 920 c0 -11 -9 -25 -20 -32 -11 -7 -20 -16 -20 -19 0 -4 9 -9
20 -12 15 -4 20 0 20 13 0 10 7 17 16 16 9 0 19 5 21 12 3 6 -2 12 -11 12 -10
0 -13 6 -10 15 4 8 1 15 -5 15 -6 0 -11 -9 -11 -20z"/>
<path d="M3060 930 c0 -5 5 -10 11 -10 5 0 7 5 4 10 -3 6 -8 10 -11 10 -2 0
-4 -4 -4 -10z"/>
<path d="M1633 898 c16 -21 18 -31 10 -36 -7 -4 -10 -18 -6 -30 4 -18 8 -20
19 -11 8 6 14 22 14 35 0 13 4 24 9 24 10 0 3 39 -8 42 -3 0 -18 2 -33 3 l-26
2 21 -29z"/>
<path d="M1750 921 c0 -5 -7 -8 -16 -7 -10 0 -18 -8 -20 -21 -4 -24 19 -33 31
-13 4 6 11 8 16 5 5 -4 9 5 9 19 0 14 -4 26 -10 26 -5 0 -10 -4 -10 -9z"/>
<path d="M2349 923 c-7 -38 -4 -59 8 -71 8 -8 17 -11 21 -8 3 4 0 11 -7 16 -9
5 -12 18 -8 39 4 18 2 31 -3 31 -6 0 -11 -3 -11 -7z"/>
<path d="M2453 916 c15 -12 17 -18 7 -36 -6 -11 -8 -30 -4 -42 6 -19 3 -20
-22 -14 -26 6 -27 5 -11 -7 9 -8 17 -22 17 -31 0 -9 5 -16 11 -16 5 0 7 5 4
11 -4 5 1 19 11 30 17 19 19 19 31 3 9 -12 13 -13 13 -5 0 8 -10 22 -21 32
-16 14 -20 25 -15 45 5 18 3 30 -6 35 -22 14 -34 9 -15 -5z"/>
<path d="M2510 922 c0 -5 7 -9 15 -9 8 0 15 4 15 9 0 4 -7 8 -15 8 -8 0 -15
-4 -15 -8z"/>
<path d="M5550 919 c0 -5 5 -7 10 -4 6 3 10 8 10 11 0 2 -4 4 -10 4 -5 0 -10
-5 -10 -11z"/>
<path d="M646 909 c3 -5 0 -9 -5 -9 -15 0 -14 -47 0 -56 8 -5 10 1 5 19 -5 20
-2 27 15 32 22 7 19 17 -6 21 -8 1 -13 -2 -9 -7z"/>
<path d="M968 913 c-3 -4 -2 -19 2 -33 l6 -25 8 24 c8 22 -7 52 -16 34z"/>
<path d="M2051 894 c-9 -20 -9 -25 0 -22 14 5 32 48 20 48 -4 0 -13 -12 -20
-26z"/>
<path d="M2310 906 c0 -9 5 -16 10 -16 6 0 10 4 10 9 0 6 -4 13 -10 16 -5 3
-10 -1 -10 -9z"/>
<path d="M2728 897 c-3 -16 0 -23 12 -23 12 0 15 7 12 23 -2 13 -8 23 -12 23
-4 0 -10 -10 -12 -23z"/>
<path d="M4335 910 c3 -5 8 -10 11 -10 2 0 4 5 4 10 0 6 -5 10 -11 10 -5 0 -7
-4 -4 -10z"/>
<path d="M4730 906 c0 -7 9 -16 20 -19 23 -6 26 3 8 21 -16 16 -28 15 -28 -2z"/>
<path d="M4797 913 c-4 -3 -7 -11 -7 -17 0 -6 5 -5 12 2 6 6 9 14 7 17 -3 3
-9 2 -12 -2z"/>
<path d="M4979 917 c-1 -1 -3 -14 -5 -29 -2 -18 2 -28 10 -28 19 0 27 48 10
54 -8 3 -15 4 -15 3z"/>
<path d="M401 873 l-14 -37 -18 23 c-14 17 -19 19 -19 7 0 -8 9 -20 20 -26 14
-8 18 -18 15 -43 -5 -40 17 -72 45 -64 25 6 36 -9 20 -28 -17 -20 -5 -19 20 2
11 10 20 27 19 38 0 17 -1 18 -7 3 -5 -12 -11 -15 -21 -9 -8 5 -21 7 -29 3
-10 -3 -13 -1 -8 6 4 7 4 12 -1 12 -15 0 -31 48 -20 59 9 9 20 91 13 91 -1 0
-8 -17 -15 -37z"/>
<path d="M726 902 c-3 -5 3 -17 14 -27 23 -21 26 -9 6 18 -8 10 -17 14 -20 9z"/>
<path d="M1016 884 c-10 -14 -16 -28 -13 -30 2 -3 12 7 21 22 10 14 16 28 13
30 -2 3 -12 -7 -21 -22z"/>
<path d="M1846 896 c21 -15 30 -14 19 3 -3 6 -14 11 -23 11 -13 0 -13 -2 4
-14z"/>
<path d="M2180 901 c0 -5 7 -14 15 -21 13 -10 15 -9 15 9 0 12 -6 21 -15 21
-8 0 -15 -4 -15 -9z"/>
<path d="M3500 900 c0 -5 5 -10 11 -10 5 0 7 5 4 10 -3 6 -8 10 -11 10 -2 0
-4 -4 -4 -10z"/>
<path d="M3726 897 c3 -10 9 -15 12 -12 3 3 0 11 -7 18 -10 9 -11 8 -5 -6z"/>
<path d="M4071 894 c0 -11 3 -14 6 -6 3 7 2 16 -1 19 -3 4 -6 -2 -5 -13z"/>
<path d="M1785 890 c3 -5 8 -10 11 -10 2 0 4 5 4 10 0 6 -5 10 -11 10 -5 0 -7
-4 -4 -10z"/>
<path d="M2125 868 c-11 -18 -24 -42 -28 -53 -5 -13 -10 -16 -15 -8 -11 17
-74 21 -80 4 -3 -10 0 -12 14 -7 15 6 17 5 7 -5 -22 -22 -14 -31 9 -10 16 16
25 18 35 9 10 -8 18 -6 33 7 11 10 20 23 20 28 0 6 7 18 16 28 9 10 14 23 12
29 -2 6 -12 -4 -23 -22z"/>
<path d="M2515 879 c-5 -14 -3 -25 4 -27 6 -2 11 -18 11 -35 0 -29 1 -30 17
-15 14 15 15 21 3 45 -7 15 -14 31 -14 35 -2 19 -15 17 -21 -3z"/>
<path d="M2565 890 c3 -5 8 -10 11 -10 2 0 4 5 4 10 0 6 -5 10 -11 10 -5 0 -7
-4 -4 -10z"/>
<path d="M559 888 c-5 -22 -4 -76 1 -73 11 7 18 75 8 75 -4 0 -8 -1 -9 -2z"/>
<path d="M675 880 c-3 -5 -1 -10 4 -10 6 0 11 5 11 10 0 6 -2 10 -4 10 -3 0
-8 -4 -11 -10z"/>
<path d="M1610 865 c1 -26 2 -28 11 -12 8 14 8 22 0 30 -8 8 -11 3 -11 -18z"/>
<path d="M2776 875 c4 -8 8 -15 10 -15 2 0 4 7 4 15 0 8 -4 15 -10 15 -5 0 -7
-7 -4 -15z"/>
<path d="M3450 880 c0 -5 9 -15 20 -22 11 -7 20 -18 20 -25 0 -6 5 -15 11 -19
7 -4 9 2 7 17 -5 35 -58 80 -58 49z"/>
<path d="M3570 881 c0 -6 5 -13 10 -16 6 -3 10 1 10 9 0 9 -4 16 -10 16 -5 0
-10 -4 -10 -9z"/>
<path d="M3921 874 c0 -11 3 -14 6 -6 3 7 2 16 -1 19 -3 4 -6 -2 -5 -13z"/>
<path d="M5544 875 c21 -16 32 -13 21 4 -3 6 -14 11 -23 11 -15 -1 -15 -2 2
-15z"/>
<path d="M433 869 c-9 -9 -9 -18 -2 -31 8 -14 7 -24 -3 -35 -12 -15 -11 -15 9
-5 29 16 34 15 27 -3 -4 -8 -1 -15 5 -15 6 0 10 11 9 24 -1 13 -7 22 -13 20
-6 -3 -11 4 -11 15 0 11 4 17 9 14 5 -3 8 0 5 7 -6 19 -22 22 -35 9z"/>
<path d="M1793 867 c-28 -12 -28 -18 -4 -46 l19 -21 4 37 c3 21 5 39 4 39 -1
1 -11 -3 -23 -9z"/>
<path d="M2213 865 c-7 -8 -13 -21 -13 -30 0 -8 -4 -15 -10 -15 -5 0 -10 -9
-10 -20 0 -11 5 -20 11 -20 5 0 8 4 5 9 -3 5 5 16 18 24 15 10 24 26 24 41 0
29 -7 32 -25 11z"/>
<path d="M2600 862 c6 -13 14 -21 18 -18 3 4 -2 14 -12 24 -18 16 -18 16 -6
-6z"/>
<path d="M4804 869 c-3 -6 1 -18 10 -27 15 -15 16 -14 16 11 0 27 -13 36 -26
16z"/>
<path d="M4940 869 c0 -5 5 -7 10 -4 6 3 10 8 10 11 0 2 -4 4 -10 4 -5 0 -10
-5 -10 -11z"/>
<path d="M1840 859 c0 -5 5 -7 10 -4 6 3 10 8 10 11 0 2 -4 4 -10 4 -5 0 -10
-5 -10 -11z"/>
<path d="M3170 860 c0 -5 7 -10 15 -10 18 0 20 -21 3 -39 -10 -11 -8 -10 10 0
25 15 28 29 10 47 -15 15 -38 16 -38 2z"/>
<path d="M2 840 c0 -14 2 -19 5 -12 2 6 2 18 0 25 -3 6 -5 1 -5 -13z"/>
<path d="M670 851 c0 -5 5 -13 10 -16 6 -3 10 -2 10 4 0 5 -4 13 -10 16 -5 3
-10 2 -10 -4z"/>
<path d="M2140 841 c0 -11 5 -23 10 -26 6 -4 10 5 10 19 0 14 -4 26 -10 26 -5
0 -10 -9 -10 -19z"/>
<path d="M4611 844 c0 -11 3 -14 6 -6 3 7 2 16 -1 19 -3 4 -6 -2 -5 -13z"/>
<path d="M2298 845 c-7 -7 14 -55 25 -55 4 0 7 6 7 13 0 18 -24 50 -32 42z"/>
<path d="M4220 840 c0 -5 5 -10 11 -10 5 0 7 5 4 10 -3 6 -8 10 -11 10 -2 0
-4 -4 -4 -10z"/>
<path d="M830 830 c0 -5 5 -10 10 -10 6 0 10 5 10 10 0 6 -4 10 -10 10 -5 0
-10 -4 -10 -10z"/>
<path d="M972 811 c2 -22 8 -31 25 -34 22 -4 22 -3 8 13 -8 9 -15 24 -15 33 0
9 -5 17 -10 17 -6 0 -9 -13 -8 -29z"/>
<path d="M4880 826 c0 -8 5 -18 10 -21 6 -3 10 1 10 9 0 8 -4 18 -10 21 -5 3
-10 -1 -10 -9z"/>
<path d="M4959 826 c7 -8 13 -31 15 -52 3 -36 26 -63 26 -31 0 9 3 22 6 30 3
8 -2 21 -10 30 -9 9 -16 20 -16 26 0 6 -7 11 -16 11 -13 0 -14 -3 -5 -14z"/>
<path d="M650 809 c0 -12 9 -36 20 -55 16 -24 18 -34 8 -40 -6 -4 -14 -2 -16
4 -5 16 -22 5 -22 -14 0 -8 5 -12 10 -9 6 3 10 0 10 -7 0 -8 5 -6 11 5 5 9 17
17 25 17 12 0 12 4 2 23 -7 12 -17 25 -22 28 -5 4 -5 12 -2 18 4 6 2 11 -4 11
-7 0 -10 7 -7 15 4 8 2 17 -3 20 -6 4 -10 -4 -10 -16z"/>
<path d="M3050 815 c0 -8 4 -15 10 -15 5 0 7 7 4 15 -4 8 -8 15 -10 15 -2 0
-4 -7 -4 -15z"/>
<path d="M4435 820 c-17 -7 -17 -9 -2 -9 9 -1 17 -6 17 -12 0 -8 5 -8 15 1 31
26 12 38 -30 20z"/>
<path d="M4646 822 c-4 -7 0 -19 8 -28 17 -17 19 -11 7 20 -5 14 -10 16 -15 8z"/>
<path d="M1020 809 c0 -5 5 -7 10 -4 6 3 10 8 10 11 0 2 -4 4 -10 4 -5 0 -10
-5 -10 -11z"/>
<path d="M2650 810 c0 -5 5 -10 11 -10 5 0 7 5 4 10 -3 6 -8 10 -11 10 -2 0
-4 -4 -4 -10z"/>
<path d="M2846 805 c4 -8 8 -15 10 -15 2 0 4 7 4 15 0 8 -4 15 -10 15 -5 0 -7
-7 -4 -15z"/>
<path d="M3630 812 c0 -6 -8 -9 -17 -6 -15 5 -16 4 -3 -5 16 -11 40 3 27 16
-4 3 -7 1 -7 -5z"/>
<path d="M41 796 c24 -13 39 -12 39 3 0 4 -14 8 -32 9 -32 1 -32 1 -7 -12z"/>
<path d="M4750 800 c19 -13 30 -13 30 0 0 6 -10 10 -22 10 -19 0 -20 -2 -8
-10z"/>
<path d="M707 779 c4 -13 8 -18 11 -10 2 7 -1 18 -6 23 -8 8 -9 4 -5 -13z"/>
<path d="M3205 790 c-4 -7 0 -19 9 -28 20 -21 26 -13 10 16 -8 16 -14 20 -19
12z"/>
<path d="M3816 784 c-4 -9 -4 -19 -1 -22 2 -3 7 3 11 12 4 9 4 19 1 22 -2 3
-7 -3 -11 -12z"/>
<path d="M4862 788 c-17 -17 -15 -33 2 -19 11 10 15 8 19 -6 4 -15 5 -14 6 4
1 27 -12 36 -27 21z"/>
<path d="M266 774 c-9 -24 -7 -27 9 -10 17 17 19 26 6 26 -5 0 -12 -7 -15 -16z"/>
<path d="M435 781 c-3 -5 -1 -12 5 -16 5 -3 10 1 10 9 0 18 -6 21 -15 7z"/>
<path d="M624 779 c2 -9 -1 -22 -7 -28 -6 -6 -8 -14 -4 -18 4 -4 13 -1 19 5 9
9 8 17 -1 34 -6 13 -10 16 -7 7z"/>
<path d="M843 761 c0 -22 3 -26 13 -17 8 7 9 17 3 29 -13 24 -16 22 -16 -12z"/>
<path d="M2150 770 c0 -12 7 -20 18 -20 13 0 14 2 3 9 -7 5 -10 14 -7 20 4 6
2 11 -3 11 -6 0 -11 -9 -11 -20z"/>
<path d="M2475 780 c-3 -5 -1 -10 4 -10 6 0 11 5 11 10 0 6 -2 10 -4 10 -3 0
-8 -4 -11 -10z"/>
<path d="M1030 766 c0 -15 18 -31 26 -23 7 7 -7 37 -17 37 -5 0 -9 -6 -9 -14z"/>
<path d="M3500 769 c0 -5 5 -7 10 -4 6 3 10 8 10 11 0 2 -4 4 -10 4 -5 0 -10
-5 -10 -11z"/>
<path d="M4236 763 c-6 -14 -5 -15 5 -6 7 7 10 15 7 18 -3 3 -9 -2 -12 -12z"/>
<path d="M560 751 c0 -20 17 -37 27 -28 7 8 -7 47 -18 47 -5 0 -9 -9 -9 -19z"/>
<path d="M880 761 c0 -5 5 -13 10 -16 6 -3 10 -2 10 4 0 5 -4 13 -10 16 -5 3
-10 2 -10 -4z"/>
<path d="M3570 743 c0 -22 2 -25 10 -13 13 20 13 40 0 40 -5 0 -10 -12 -10
-27z"/>
<path d="M4100 760 c0 -5 5 -10 10 -10 6 0 10 5 10 10 0 6 -4 10 -10 10 -5 0
-10 -4 -10 -10z"/>
<path d="M355 733 c5 -35 0 -39 -25 -23 -9 6 -11 10 -3 10 7 0 10 7 6 17 -5
14 -8 13 -15 -7 -5 -13 -7 -24 -6 -25 2 -1 16 -12 33 -24 l30 -23 6 24 c3 12
11 22 18 20 9 -2 9 3 1 18 -6 11 -17 20 -25 20 -7 0 -16 6 -19 13 -4 6 -4 -3
-1 -20z"/>
<path d="M2025 749 c-10 -15 3 -25 16 -12 7 7 7 13 1 17 -6 3 -14 1 -17 -5z"/>
<path d="M4741 744 c0 -11 3 -14 6 -6 3 7 2 16 -1 19 -3 4 -6 -2 -5 -13z"/>
<path d="M1010 740 c0 -5 5 -10 10 -10 6 0 10 5 10 10 0 6 -4 10 -10 10 -5 0
-10 -4 -10 -10z"/>
<path d="M1720 741 c0 -5 5 -13 10 -16 6 -3 10 -2 10 4 0 5 -4 13 -10 16 -5 3
-10 2 -10 -4z"/>
<path d="M1862 738 c2 -6 10 -14 16 -16 7 -2 10 2 6 12 -7 18 -28 22 -22 4z"/>
<path d="M4451 734 c0 -11 3 -14 6 -6 3 7 2 16 -1 19 -3 4 -6 -2 -5 -13z"/>
<path d="M2370 724 c0 -17 22 -14 28 4 2 7 -3 12 -12 12 -9 0 -16 -7 -16 -16z"/>
<path d="M733 714 c-3 -8 -1 -20 6 -27 15 -15 27 -1 13 16 -7 8 -9 17 -5 20 3
4 3 7 -1 7 -3 0 -9 -7 -13 -16z"/>
<path d="M4469 713 c-13 -16 -12 -17 4 -4 16 13 21 21 13 21 -2 0 -10 -8 -17
-17z"/>
<path d="M4538 723 c7 -3 16 -2 19 1 4 3 -2 6 -13 5 -11 0 -14 -3 -6 -6z"/>
<path d="M611 694 c0 -11 3 -14 6 -6 3 7 2 16 -1 19 -3 4 -6 -2 -5 -13z"/>
</g>
</svg>
